<?xml version="1.0" encoding="utf-8"?>
<svg version="1.1" id="Capa_1" viewBox="0 0 470 470" xmlns="http://www.w3.org/2000/svg">
  <defs/>
  <g transform="matrix(0.219791, 0, 0, 0.219791, 122.999008, 84.174194)" style="pointer-events: none; visibility: hidden;" id="group-0">
    <title>library1</title>
    <defs/>
    <g stroke-width=".0938" transform="matrix(1.124727, 0, 0, 1.124727, -66.352631, -90.785583)" style="" id="group-1">
      <title>BODY</title>
      <path d="m339.28 689.85c1.6 2.4 0.87 5.44 1.02 8.15 0.52-0.73 1.03-1.46 1.54-2.18-1.38 10.91-3.67 21.72-6.41 32.38 0.72-12.83 2.59-25.57 3.85-38.35z" fill="#1474AC" stroke="#1474AC" id="path-0"/>
      <path d="m357.21 694.96c0.56 1.57 1.04 3.19 1.42 4.83-1.94 12.96-4.93 25.76-7.19 38.67-11.24 58.43-22.42 116.87-33.7 175.29-1.61 7.65-2.35 15.53-5.08 22.9-0.07-0.44-0.21-1.31-0.28-1.75 5.53-31.35 11.88-62.55 17.66-93.86 8.84-46.49 17.7-92.98 26.54-139.46 0.35-2.2 0.57-4.41 0.63-6.62z" fill="#2D607E" stroke="#2D607E" id="path-1"/>
      <path d="m799.09 833.09c2.17-4.72 4.25-9.5 6.8799-13.99-2.67 7.95-6.62 15.4-9.72 23.18-2.31 4.5699-3.62 9.62-6.41 13.93-0.11-0.61-0.31-1.84-0.42-2.45 2.4401-7.17 6.5301-13.76 9.6701-20.67z" fill="#1A7DB2" stroke="#1A7DB2" id="path-2"/>
      <path d="m789.42 853.76c0.11 0.61 0.31 1.84 0.42 2.45-1.78 6.28-5.17 12.01-7.52 18.1-3.69 8.65-7.48 17.27-11.23 25.9-0.41 1.42-2.3701 0.24-2.36-0.86-1.25-2.19 0.33-4.41 1.22-6.38 6.67-12.98 12.3-26.5 19.47-39.21z" fill="#117DBA" stroke="#117DBA" id="path-3"/>
      <path d="m305.83 648.19c2.56 2.2 4.62 4.91 6.04 7.98-2.14-2.57-4.02-5.32-6.04-7.98z" fill="#FDFCFE" stroke="#FDFCFE" id="path-4"/>
      <path d="m721.19 816.82c3.51 4.72 5.43 10.45 8.31 15.58 8.67 17.59 18 34.85 26.36 52.59-11.71-20.17-22.05-41.13-33.34-61.55-1.33-1.96-1.37-4.35-1.33-6.62z" fill="#FDFCFB" stroke="#FDFCFB" id="path-5"/>
      <path d="m718.34 871.88c0.45 1.07 0.9 2.15 1.34 3.26-0.2 7.75-0.11 15.54-0.87 23.26-1.73-8.72-0.61-17.71-0.47-26.52z" fill="#060302" stroke="#060302" id="path-6"/>
      <path d="m717.3 906.9c0.35 0.59 1.06 1.77 1.41 2.37-0.17 8.68-0.21 17.41-0.9 26.07-1.74-9.37-0.45-18.98-0.51-28.44z" fill="#080302" stroke="#080302" id="path-7"/>
      <path d="M 147.74 131.01 C 146.796 131.942 163.723 172.536 170.2 191.73 C 170.583 192.865 170.739 194.456 169.9 195.31 C 169.195 196.028 167.572 195.84 166.89 195.1 C 165.312 193.388 165.675 187.294 163.89 188.79 C 160.896 191.299 158.96 196.73 160.9 200.12 C 162.268 202.51 165.805 197.543 168.44 196.74 C 169.025 196.562 170.624 196.86 170.19 197.29 C 162.155 205.253 153.454 212.517 144.97 220 C 138.772 225.466 155.384 205.609 163.33 203.34 C 180.376 198.473 198.659 199.147 216.38 199.61 C 221.255 199.737 234.298 207.289 229.95 205.08 C 222.958 201.527 215.832 198.163 208.43 195.57 C 205.202 194.439 201.423 195.363 198.29 193.99 C 197.209 193.516 196.274 183.035 196.4 182.2 C 198.597 167.586 198.999 152.198 205.06 138.72 C 206.705 135.063 211.439 144.971 211.34 148.98 C 210.983 163.416 205.865 177.346 203.75 191.63 C 203.54 193.047 205.291 189.149 205.6 187.75 C 208.753 173.496 209.885 158.764 214.11 144.79 C 214.523 143.422 218.352 144.618 218.21 146.04 C 216.645 161.662 204.325 177.425 209.35 192.3 C 222.345 230.77 260.695 192.913 271.01 188.06 C 273.205 187.027 276.544 187.085 278.25 188.81 C 280.354 190.937 279.769 194.601 280.38 197.53 C 283.286 211.455 253.863 214.492 250.02 222.87 C 246.859 229.761 257.562 237.869 255.1 245.04 C 251.17 256.486 241.59 265.426 232.62 273.55 C 228.527 277.257 220.352 274.944 217.13 279.43 C 214.287 283.388 217.149 289.216 217.91 294.03 C 223.457 329.102 225.4 365.124 236.04 399 C 243.644 423.21 249.316 454.666 271.96 466.12 C 285.393 472.915 289.534 423.751 301.91 432.32 C 354.277 468.578 386.076 527.954 429.1 574.92 C 431.693 577.751 435.014 580.018 438.56 581.49 C 477.212 597.538 516.001 613.338 555.43 627.37 C 561.06 629.374 567.398 628.161 573.24 629.42 C 573.859 629.553 571.507 630.94 572.14 630.97 C 583.357 631.51 594.617 631.608 605.83 630.99 C 606.502 630.953 604.329 629.329 604.98 629.16 C 631.232 622.356 276.252 477.679 303.362 476.966" fill="#1F1A17" style="" id="path-8"/>
      <path d="M 645.49 1555.119 C 643.25 1570.789 639.52 1586.209 636.74 1601.779 C 639.33 1602.279 641.92 1602.909 644.58 1603.139 C 646.18 1586.979 647.7 1570.829 648.9 1554.639 C 647.75 1554.759 646.62 1554.929 645.49 1555.119 Z" fill="#1F1A17" stroke="#1F1A17" style="" id="path-8"/>
      <path d="M 814.72 1557.729 C 771.1 1566.359 728.77 1580.459 687.39 1596.549 C 682.24 1598.409 677.35 1601.139 671.95 1602.259 C 667.88 1603.079 664.38 1600.469 661.72 1597.739 C 659.85 1592.929 660.64 1587.589 664.14 1583.759 C 661.8 1584.329 659.49 1584.989 657.12 1585.419 C 656.3 1592.199 655.88 1599.029 655.12 1605.819 C 656.7 1606.159 658.29 1606.539 659.88 1606.959 C 691.52 1610.909 723.39 1615.129 755.34 1613.479 C 792.67 1611.549 828.39 1598.639 861.91 1582.849 C 871.25 1578.019 880.83 1573.169 888.61 1565.979 C 884.34 1561.709 878.5 1559.629 872.8 1558.129 C 863.1 1555.529 853.03 1554.729 843.04 1554.239 C 833.45 1553.609 824.1 1556.229 814.72 1557.729" fill="#1F1A17" stroke="#1F1A17" style="" id="path-8"/>
      <path d="M 871.67 1552.079 C 875.01 1553.789 878.82 1554.229 882.23 1555.799 C 886.13 1557.349 889.49 1559.899 892.92 1562.279 C 894.78 1560.549 896.4 1558.549 897.26 1556.139 C 889.18 1552.959 880.32 1551.769 871.67 1552.079" fill="#1F1A17" stroke="#1F1A17" style="" id="path-8"/>
      <path d="M 664.8 1551.419 C 665.2 1551.739 666 1552.389 666.4 1552.709 C 663.97 1552.889 661.53 1553.089 659.11 1553.269 C 658.66 1562.229 657.91 1571.189 657.55 1580.169 C 672.96 1575.849 688.36 1571.499 703.94 1567.839 C 711.48 1565.799 718.69 1562.709 726.15 1560.389 C 729.79 1558.969 733.76 1558.349 737.19 1556.409 C 726.67 1554.879 716.12 1553.479 705.52 1552.709 C 705.91 1552.389 706.7 1551.729 707.1 1551.409 C 693.02 1550.769 678.88 1550.729 664.8 1551.419" fill="#1F1A17" stroke="#1F1A17" style="" id="path-8"/>
      <path d="M 578.78 1562.809 C 576.51 1563.539 578.02 1566.419 577.8 1568.129 C 598.09 1559.989 619.22 1553.799 640.86 1550.539 C 641.26 1549.199 641.65 1547.859 642.04 1546.549 C 620.35 1548.999 599.1 1554.899 578.78 1562.809" fill="#1F1A17" stroke="#1F1A17" style="" id="path-8"/>
      <path d="M 647.36 1545.429 C 647 1546.859 646.68 1548.319 646.35 1549.789 C 647.26 1549.579 648.17 1549.389 649.09 1549.219 C 649.2 1547.939 649.32 1546.679 649.46 1545.449 C 648.94 1545.439 647.89 1545.439 647.36 1545.429" fill="#1F1A17" stroke="#1F1A17" style="" id="path-8"/>
      <path d="M 659.46 1544.509 C 659.32 1545.639 659.19 1546.789 659.07 1547.949 C 686.12 1545.959 713.44 1546.899 740.15 1551.819 C 743.54 1552.359 746.93 1553.429 750.41 1552.969 C 747.26 1550.969 743.36 1550.999 739.85 1550.079 C 713.43 1544.769 686.35 1542.749 659.46 1544.509" fill="#1F1A17" stroke="#1F1A17" style="" id="path-8"/>
      <path d="M 296.07 1524.909 C 293.62 1546.349 291.49 1567.849 290.49 1589.419 C 293.12 1589.309 295.75 1589.159 298.38 1589.029 C 298.32 1583.749 297.9 1578.489 297.97 1573.229 C 299.4 1571.869 298.81 1569.729 298.95 1568.019 C 298.51 1553.579 299.2 1539.109 298.61 1524.679 L 297.83 1525.319 C 297.39 1525.209 296.51 1525.009 296.07 1524.909" fill="#1F1A17" stroke="#1F1A17" style="" id="path-8"/>
      <path d="M 303.43 1521.199 C 303.3 1522.499 305.34 1522.639 306.25 1522.979 C 306.8 1523.219 309.35 1523.159 308.08 1522.109 C 306.74 1521.349 304.93 1520.409 303.43 1521.199" fill="#1F1A17" stroke="#1F1A17" style="" id="path-8"/>
      <path d="M 55.94 1511.319 C 56.63 1512.469 57.36 1513.629 58.32 1514.609 C 69.5 1526.059 82.67 1535.299 96.16 1543.809 C 114.39 1555.379 133.47 1565.849 153.81 1573.229 C 172.2 1580.029 191.54 1583.909 210.99 1586.069 C 232.4 1588.839 254.04 1589.009 275.53 1590.829 L 275.5 1590.289 C 276.87 1590.149 278.25 1590.009 279.62 1589.889 C 279.64 1583.069 280.91 1576.319 280.8 1569.509 C 278.49 1568.759 276.31 1567.719 274.12 1566.729 C 277.03 1570.959 277.23 1576.54 274.27 1580.819 L 274.46 1581.56 C 270.82 1583.349 266.54 1585.39 262.52 1583.43 C 257.11 1580.67 252.19 1577.06 246.91 1574.079 C 204.52 1549.029 160.67 1525.769 113.88 1510.039 C 106.47 1507.469 98.51 1507.279 90.79 1506.399 C 79.11 1505.829 66.45 1505.319 55.94 1511.319" fill="#1F1A17" stroke="#1F1A17" style="" id="path-8"/>
      <path d="M 177.04 1500.539 C 176.81 1501.579 176.58 1502.639 176.36 1503.719 L 175.68 1504.509 C 181.76 1505.169 187.89 1504.689 193.99 1505.009 C 196.73 1504.909 199.73 1505.559 202.2 1504.049 C 230.98 1505.199 259.54 1509.839 287.44 1516.899 C 286.31 1515.269 284.28 1515.069 282.54 1514.559 C 248.17 1505.449 212.61 1500.459 177.04 1500.539" fill="#1F1A17" stroke="#1F1A17" style="" id="path-8"/>
      <path d="M 49.04 1500.319 C 49.95 1502.589 50.55 1505.969 52.98 1506.909 C 56.29 1505.609 59.37 1503.699 62.87 1502.889 C 67.2 1501.589 71.79 1501.699 76.14 1500.489 C 67.19 1499.239 57.96 1498.489 49.04 1500.319" fill="#1F1A17" stroke="#1F1A17" style="" id="path-8"/>
      <path d="M 706.2 1096.159 C 705.78 1098.989 705.49 1101.889 706.19 1104.719 C 706.78 1104.709 707.97 1104.679 708.56 1104.669 C 708.52 1101.869 708.55 1099.079 708.62 1096.309 C 708.01 1096.269 706.8 1096.189 706.2 1096.159" fill="#1F1A17" stroke="#1F1A17" style="" id="path-8"/>
      <path d="M 938.17 1086.139 C 936.89 1086.829 936.9 1087.519 938.18 1088.219 C 939.46 1087.489 939.46 1086.799 938.17 1086.139" fill="#1F1A17" stroke="#1F1A17" style="" id="path-8"/>
      <path d="M 945.96 1086.159 L 946.24 1087.639 C 950.23 1086.789 954.3 1086.049 958.01 1084.249 C 953.98 1084.819 950.02 1085.809 945.96 1086.159" fill="#1F1A17" stroke="#1F1A17" style="" id="path-8"/>
      <path d="M 902.07 1078.529 C 908.4 1082.169 915.16 1085.159 922.34 1086.659 C 926.02 1087.729 929.92 1086.119 933.39 1088.209 C 933.82 1085.349 930.8 1085.889 928.96 1085.429 C 920.42 1084.259 912.2 1081.269 904.66 1077.159 C 903.47 1076.149 902.7 1077.809 902.07 1078.529" fill="#1F1A17" stroke="#1F1A17" style="" id="path-8"/>
      <path d="M 952.77 1077.769 C 944.75 1080.349 936.31 1080.139 928.01 1080.459 C 939.96 1082.399 952.61 1081.749 963.73 1076.619 C 963.81 1075.879 963.97 1074.409 964.04 1073.669 C 960.28 1075.019 956.64 1076.729 952.77 1077.769" fill="#1F1A17" stroke="#1F1A17" style="" id="path-8"/>
      <path d="M 974.84 1068.159 C 977.29 1066.799 978.79 1064.349 980.12 1061.979 C 978.01 1063.609 974.93 1065.149 974.84 1068.159" fill="#1F1A17" stroke="#1F1A17" style="" id="path-8"/>
      <path d="M 374.87 1060.339 C 375.26 1060.689 376.06 1061.389 376.45 1061.739 C 352.24 1062.919 328.11 1065.579 304.18 1069.479 C 302.69 1069.429 301.71 1070.459 301.45 1071.879 C 327.67 1067.249 354.17 1064.199 380.76 1063.049 C 381.67 1063.839 382.73 1064.219 383.94 1064.159 C 402.98 1063.899 422.02 1063.919 441.05 1064.219 C 442.52 1064.149 444.21 1064.289 445.29 1063.059 C 519.82 1066.449 593.44 1080.969 665.28 1100.639 C 673.3 1102.609 681.1 1105.579 689.24 1107.029 C 687.19 1105.769 684.8 1105.309 682.54 1104.639 C 605.13 1081.929 525.44 1065.479 444.72 1061.709 C 445.34 1061.369 446.59 1060.679 447.21 1060.339 C 441.48 1059.839 435.73 1060.179 429.99 1059.979 C 427.89 1060.049 425.55 1059.569 423.77 1060.959 C 415.25 1061.019 406.74 1061.019 398.22 1060.959 C 396.09 1059.519 393.43 1059.959 391.02 1059.929 C 385.63 1060.119 380.23 1059.829 374.87 1060.339" fill="#1F1A17" stroke="#1F1A17" style="" id="path-8"/>
      <path d="M 883.36 1051.089 C 883.93 1056.509 886.18 1061.579 889.23 1066.059 C 889.6 1065.759 890.34 1065.159 890.72 1064.859 C 887.37 1060.779 885.37 1055.899 883.36 1051.089" fill="#1F1A17" stroke="#1F1A17" style="" id="path-8"/>
      <path d="M 346.06 1015.389 C 331.25 1017.129 316.47 1019.559 302.14 1023.729 C 299.14 1024.389 302.09 1029.43 303.39 1025.969 L 304.18 1026.339 C 309.89 1025.18 315.65 1023.989 321.16 1022.08 C 336.86 1018.97 352.74 1016.58 368.75 1016.03 C 369.11 1016.25 369.84 1016.69 370.2 1016.909 C 376.8 1017.28 383.42 1016.799 390.03 1017.059 C 392.44 1016.959 395.16 1017.589 397.25 1016.049 C 432.9 1017.599 467.85 1025.899 501.91 1036.109 C 505.44 1037.92 509.31 1038.859 513.1 1039.959 C 533.97 1046.499 554.42 1054.309 574.91 1061.969 C 579.15 1063.479 583.64 1064.03 588.04 1064.969 C 594.67 1066.339 601.25 1068.05 607.99 1068.849 C 584 1060.54 560.03 1052.119 535.89 1044.209 C 528.96 1042.089 522.2 1039.229 515.09 1037.839 C 508.04 1034.8 500.42 1033.339 493.1 1031.069 C 488.67 1030.099 484.31 1027.93 479.68 1028.569 L 478.95 1028.369 C 477.4 1025.789 474.21 1026.489 471.7 1026.459 C 437.47 1017.429 401.87 1012.519 366.44 1014.649 C 359.65 1014.109 352.77 1014.169 346.06 1015.389" fill="#1F1A17" stroke="#1F1A17" style="" id="path-8"/>
      <path d="M 893 1026.879 C 897.15 1021.349 902.82 1017.399 908.01 1012.959 C 901.78 1015.829 895.99 1020.599 893 1026.879" fill="#1F1A17" stroke="#1F1A17" style="" id="path-8"/>
      <path d="M 934.79 1010.409 C 921.55 1012.65 908.11 1017.569 898.82 1027.659 C 897.62 1028.069 896.24 1028.329 895.61 1029.559 C 891.6 1035.159 888.81 1042.279 890.18 1049.229 C 891.17 1053.209 893.2 1056.889 895.82 1060.039 C 897.94 1058.439 900.64 1055.849 903.45 1057.609 C 907.54 1060.129 907.02 1065.469 907.25 1069.629 C 918.5 1075.099 931.42 1076.749 943.72 1074.659 C 959.17 1071.629 973.07 1061.379 980.6 1047.569 C 982.73 1042.179 982.57 1035.849 980.55 1030.439 C 979.72 1028.719 979.1 1026.369 976.98 1025.919 C 971.66 1024.099 967.85 1019.699 963 1017.029 C 954.71 1011.999 944.59 1007.299 934.79 1010.409" fill="#1F1A17" stroke="#1F1A17" style="" id="path-8"/>
      <path d="M 909.38 972.959 C 911.91 983.319 915.26 993.469 917.52 1003.899 C 918.67 1003.859 919.84 1003.829 921.01 1003.799 C 917.58 993.379 913.74 983.029 909.38 972.959" fill="#1F1A17" stroke="#1F1A17" style="" id="path-8"/>
      <path d="M 709.39 833.999 C 709.6 889.339 710.53 944.679 710.56 1000.029 C 711.17 998.789 711.61 997.449 711.53 996.069 C 711.49 973.679 712.75 951.319 712.59 928.929 C 713.09 931.259 713.31 933.639 713.56 936.019 C 713.21 912.669 714.51 889.349 714.76 866.009 C 715.08 859.019 715.8 852.009 715.26 845.029 C 713.97 841.039 711.69 837.459 709.39 833.999" fill="#1F1A17" stroke="#1F1A17" style="" id="path-8"/>
      <path d="M 799.12 833.089 C 795.98 839.999 791.89 846.589 789.45 853.759 C 782.28 866.469 776.65 879.989 769.98 892.969 C 769.09 894.939 767.51 897.159 768.76 899.349 C 768.75 900.449 770.71 901.629 771.12 900.209 C 774.87 891.579 778.66 882.959 782.35 874.309 C 784.7 868.219 788.09 862.489 789.87 856.209 C 792.66 851.899 793.97 846.849 796.28 842.279 C 799.38 834.499 803.33 827.049 806 819.099 C 803.37 823.59 801.29 828.37 799.12 833.089" fill="#1F1A17" stroke="#1F1A17" style="" id="path-8"/>
      <path d="M 721.22 816.819 C 721.18 819.089 721.22 821.479 722.55 823.439 C 733.84 843.859 744.18 864.819 755.89 884.989 C 747.53 867.249 738.2 849.989 729.53 832.399 C 726.65 827.269 724.73 821.539 721.22 816.819" fill="#1F1A17" stroke="#1F1A17" style="" id="path-8"/>
      <path d="M 264.18 498.09 C 251.93 511.87 239.8 525.76 227.48 539.47 C 226.44 540.64 225.49 541.89 224.81 543.31 C 226.48 542.58 227.6 541.13 228.8 539.82 C 240.82 526.2 252.86 512.59 264.93 499.02 C 265.82 497.99 266.6 496.86 267.19 495.64 C 266 496.21 265.03 497.1 264.18 498.09" fill="#1F1A17" stroke="#1F1A17" style="" id="path-8"/>
      <path d="M 277.37 483.31 C 276.16 483.71 274.62 485.19 275.21 486.56 C 276.6 487.21 279.15 483.99 277.37 483.31" fill="#1F1A17" stroke="#1F1A17" style="" id="path-8"/>
      <path d="M 299.78 457.85 C 294.2 464.26 288.56 470.62 282.86 476.92 C 281.97 477.9 281.24 479 280.68 480.21 C 282.34 479.42 283.54 478.02 284.74 476.69 C 289.98 470.61 295.33 464.63 300.71 458.67 C 301.49 457.8 302.08 456.82 302.48 455.72 C 301.45 456.27 300.55 456.98 299.78 457.85" fill="#1F1A17" stroke="#1F1A17" style="" id="path-8"/>
      <path d="M 258.14 453.11 C 261.05 459.24 264.31 465.19 267.37 471.24 C 267.68 470.88 268.28 470.17 268.59 469.82 C 265.29 464.15 261.98 458.44 258.14 453.11" fill="#1F1A17" stroke="#1F1A17" style="" id="path-8"/>
      <path d="M 206.14 281.4 C 208.23 292.93 209.83 304.59 212.56 315.99 C 211.79 304.32 210.56 292.7 209.86 281.03 C 208.62 281.15 207.38 281.27 206.14 281.4" fill="#1F1A17" stroke="#1F1A17" style="" id="path-8"/>
      <path d="M 228.09 270.18 C 224.52 271.98 220.56 272.74 216.93 274.34 L 216.33 275.38 C 225.14 273.9 234.16 269.95 239.92 262.92 C 236.01 265.4 232.4 268.39 228.09 270.18" fill="#1F1A17" stroke="#1F1A17" style="" id="path-8"/>
      <path d="M 844.288 744.985 C 835.688 766.132 791.86 865.18 783.19 885.26 C 778.9 894.83 775.09 904.63 770.45 914.02 C 768.7 910.46 767.1 906.83 765.07 903.43 C 761.93 909.32 759.77 915.66 756.82 921.64 C 746.44 901.37 735.36 881.46 724.52 861.43 C 723.2 859.09 722.21 856.51 720.32 854.56 C 719.96 861.41 720.28 868.3 719.68 875.14 C 719.24 874.03 718.79 872.95 718.34 871.88 C 718.2 880.69 717.08 889.68 718.81 898.4 C 719.26 901.99 719.1 905.66 718.71 909.27 C 718.36 908.67 717.65 907.49 717.3 906.9 C 717.36 916.36 716.07 925.97 717.81 935.34 C 718.27 939.24 717.99 943.2 717.69 947.12 C 717.29 945.65 716.85 944.22 716.41 942.8 C 716.15 951.96 715.18 961.29 716.82 970.37 C 717.28 974.26 716.99 978.21 716.71 982.12 C 716.29 980.65 715.84 979.22 715.38 977.8 C 715.09 987.61 714.16 997.59 715.82 1007.33 C 716.28 1011.25 715.89 1015.22 715.68 1019.16 C 715.4 1017 714.96 1014.89 714.45 1012.8 C 713.88 1019.18 714.17 1025.59 713.95 1032 C 713.8 1035.46 714.05 1038.95 714.81 1042.35 C 715.32 1046.26 714.87 1050.22 714.68 1054.15 C 714.44 1052 713.99 1049.89 713.44 1047.81 C 712.71 1054.51 713.15 1061.26 712.95 1067.99 C 712.82 1071.46 713.06 1074.94 713.81 1078.35 C 714.27 1081.58 713.93 1084.86 713.74 1088.11 C 713.31 1086.62 712.82 1085.17 712.33 1083.74 C 711.43 1092 711.95 1100.32 711.75 1108.61 C 710.34 1108.94 708.95 1109.29 707.55 1109.61 C 706.86 1109.7 705.47 1109.87 704.77 1109.96 C 704.92 1111.47 706.08 1112.36 707.21 1113.24 C 718.61 1198.46 730.6 1283.62 742.2 1368.82 C 750.46 1428.51 758.55 1488.23 766.87 1547.92 C 788.95 1541.97 811.31 1536.83 834.04 1534.05 C 849.2 1532.31 864.64 1531.23 879.81 1533.52 C 886.56 1534.71 893.6 1536.53 898.91 1541.12 C 905.02 1546.68 910.08 1554.41 909.7 1562.98 C 909.39 1570.88 904.7 1577.82 899 1582.99 C 888.36 1592.71 875.41 1599.41 862.44 1605.47 C 840.08 1615.4 817.03 1624.19 792.99 1629.04 C 782.23 1631.01 771.29 1632.98 760.35 1632.82 C 754.65 1631.42 748.78 1632.28 743 1632.03 C 739.52 1631.84 736.04 1632.04 732.64 1632.83 C 723.42 1633.08 714.17 1631.72 704.97 1631.04 C 687.31 1629.31 669.71 1627.05 652.12 1624.84 C 650.34 1624.71 649.02 1623.37 648.11 1621.99 C 645.44 1617.94 644.43 1613.12 643.68 1608.42 C 639.56 1607.12 634.51 1607.52 631.12 1604.72 C 630.93 1600.47 632.65 1596.37 633.3 1592.21 C 635.83 1580.16 638.23 1568.07 640.2 1555.91 C 617.06 1559.49 594.51 1566.5 573.04 1575.78 C 572.9 1572.3 572.77 1568.82 572.33 1565.38 C 568.69 1566.91 565.07 1568.48 561.4 1569.94 C 561.59 1561.82 560.04 1553.9 558.09 1546.08 C 538.84 1458.36 519.63 1370.63 499.9 1283.03 C 498.41 1276.56 497.48 1269.94 495.15 1263.7 C 492.48 1253.83 490.85 1243.71 488.51 1233.76 C 487.02 1226.17 485.06 1218.68 483.85 1211.04 C 483.59 1206.86 481.43 1202 484.26 1198.3 C 487.32 1194.15 494.42 1194.46 496.99 1198.97 C 499.3 1203.25 498.16 1208.32 498.96 1212.95 C 524.29 1321.9 549.7 1430.86 575.05 1539.83 C 575.59 1542.18 576.12 1544.55 576.61 1546.94 C 603.28 1537.18 631.26 1530.6 659.67 1529.08 C 665.99 1530.81 672.56 1529.6 679 1529.88 C 685.44 1529.62 692.05 1530.94 698.34 1529.06 C 711.84 1529.63 725.23 1531.75 738.53 1534.1 C 740.73 1534.57 742.95 1534.97 745.18 1535.37 C 747.48 1535.8 749.76 1536.31 752.06 1536.83 C 746.23 1497.49 740.44 1458.14 734.64 1418.79 C 719.45 1316.78 704.56 1214.71 689.3 1112.7 C 614.81 1091.03 538.54 1074.19 460.98 1068.99 C 449.26 1067.88 437.47 1068.09 425.75 1067.05 C 429.22 1066.86 432.69 1066.77 436.15 1066.54 C 428.14 1065.67 420.04 1066.46 412 1066.12 C 404.98 1066.13 397.96 1065.97 390.94 1066.07 C 389.4 1065.9 388.2 1066.85 387.03 1067.7 C 359.66 1068.9 332.37 1071.76 305.36 1076.38 C 299.76 1094.43 294.26 1112.51 288.86 1130.62 C 263.02 1216.15 237.16 1301.7 211.24 1387.22 C 201.58 1419.79 191.35 1452.2 181.91 1484.84 C 239.98 1486.04 298.1 1498.34 350.68 1523.32 C 352.87 1524.41 355.16 1525.28 357.51 1526 C 392.72 1408.42 428.06 1290.88 463.3 1173.31 C 464.32 1167.27 472.59 1164.69 476.7 1169.3 C 480.83 1173.99 477.19 1180.25 476.23 1185.45 C 477.5 1185.72 478.78 1186 480.06 1186.3 C 480.06 1191.29 478.02 1195.92 476.67 1200.65 C 466.85 1233.49 457 1266.32 447.19 1299.16 C 445.38 1305.81 443.02 1312.33 441.95 1319.16 C 439.56 1327.49 436.14 1335.5 433.81 1343.85 C 412.82 1414.17 391.61 1484.41 370.77 1554.77 C 349.01 1543.47 326.35 1533.73 302.81 1526.8 C 302.36 1547.98 302.78 1569.18 303.81 1590.34 C 303.91 1591.74 303.66 1593.78 301.84 1593.89 C 297.98 1594.35 294.09 1594.35 290.23 1594.82 C 288.45 1600.18 286.21 1606.4 280.93 1609.19 C 260.26 1608.82 239.58 1607.5 218.96 1606.01 C 195.58 1604.15 172.13 1600.84 149.81 1593.39 C 129.28 1586.65 109.99 1576.65 91.61 1565.38 C 78.01 1556.98 64.5 1548.2 52.78 1537.23 C 47.1 1531.8 41.58 1525.91 38.16 1518.74 C 34.66 1511.42 34.75 1502.22 39.47 1495.45 C 43.72 1489.35 49.87 1484.17 57.22 1482.41 C 66.53 1480.1 76.25 1480.98 85.64 1482.35 C 106.16 1485.59 125.98 1492.19 145.3 1499.67 C 176.51 1511.84 206.38 1527.16 235.62 1543.42 C 251.16 1549.98 266.31 1557.41 281.68 1564.31 C 282.75 1550.14 284.84 1536.08 286.39 1521.97 C 248.38 1512.05 208.97 1507.78 169.72 1508.78 C 170.25 1505.89 171.07 1503.08 171.92 1500.28 C 166.58 1500.33 161.23 1500.59 155.89 1500.45 C 199.8 1353.96 244.28 1207.65 288.32 1061.2 C 288.96 1059.55 288.97 1057.49 290.27 1056.21 C 320.56 1050.64 351.25 1047.29 382.02 1046 C 383.21 1045.93 384.4 1046 385.59 1046.19 C 390.97 1047.5 396.52 1046.86 401.99 1046.91 C 410.33 1046.92 418.67 1046.83 427 1047.02 C 429.83 1047.11 432.64 1046.77 435.41 1046.19 C 447.93 1045.89 460.48 1047.27 472.99 1048.07 C 490.11 1049.44 507.17 1051.41 524.17 1053.79 C 531.54 1054.6 538.81 1056.32 546.2 1056.9 C 503.22 1040.89 458.9 1027.04 413.09 1022.35 C 380.54 1019.11 347.39 1020.84 315.61 1028.76 C 308.44 1030.44 301.43 1032.72 294.36 1034.74 C 294.81 1031.67 295.4 1028.64 296.02 1025.61 C 290.09 1026.95 284.46 1029.29 278.56 1030.75 C 295.46 940.68 312.75 850.67 329.78 760.63 C 331.83 749.84 334.08 739.09 335.43 728.2 C 338.17 717.54 340.46 706.73 341.84 695.82 C 343.16 693.54 344.44 690.8 347.2 690.02 C 351.21 688.55 355.74 691.08 357.21 694.96 C 357.15 697.17 356.93 699.38 356.58 701.58 C 347.74 748.06 338.88 794.55 330.04 841.04 C 324.26 872.35 317.91 903.55 312.38 934.9 C 308.34 955.75 304.44 976.61 300.48 997.47 C 299.77 1001.22 298.87 1004.94 298.59 1008.76 C 299.96 1006.7 300.26 1004.22 300.71 1001.86 C 304.46 981.1 309 960.49 312.39 939.68 C 312.99 940.12 314.19 941 314.8 941.45 C 315.97 950.2 310.32 958.44 312.22 967.25 C 310.45 980.53 306.88 993.51 305.17 1006.79 C 321.89 1003.04 338.81 1000.14 355.92 998.77 C 389.1 996.61 422.5 999.37 455.07 1005.93 C 496.73 1014.3 537.05 1027.99 577.15 1041.83 C 616.3 1055.19 655.4 1069.18 695.91 1077.93 C 696.58 1065.96 695.83 1053.97 695.85 1042 C 695.54 1001.62 695.66 961.24 695.38 920.86 C 694.92 923.24 694.63 925.65 694.43 928.07 C 694.77 885.83 694.2 843.59 694.34 801.34 C 699.32 800.22 704.28 798.92 709.35 798.25 C 711.51 802.6 713.23 807.26 716.3 811.11 C 716.48 809.36 716.65 807.62 716.84 805.9 C 718.4 805.62 719.97 805.35 721.55 805.11 C 731.44 824.7 741.26 844.32 751.12 863.93 C 753.57 868.84 755.83 873.86 758.93 878.42 C 763.21 870.98 766.54 863.04 770.41 855.38 C 787.19 821.76 803.47 787.9 820.26 754.29 C 821.86 750.69 824.49 747.36 824.82 743.34 C 818.2 737.19 810.66 732.08 803.76 726.24 C 763.4 694.36 723.34 662.09 682.87 630.35 C 666.86 635.95 650.27 639.73 633.54 642.35 C 615.43 644.3 597.22 645.9 578.99 645.27 C 566.03 644.24 553 643.44 540.27 640.68 C 500.75 632.93 463.46 616.08 429.77 594.28 C 425.38 591.37 420.65 588.85 416.95 585.04 C 384 548 351.09 510.92 318.11 473.9 C 314.17 469.41 310.36 464.8 306.01 460.7 C 298.47 468.48 291.28 476.63 284.45 485.03 C 286.41 488.48 289.2 491.48 290.68 495.19 C 292.02 497.55 288.23 498.94 286.96 497.1 C 284.84 494.43 283.09 491.48 280.94 488.83 C 280.02 490.01 278.15 490.9 278.54 492.66 C 279.07 498.17 279.79 504.09 277.18 509.23 C 276.39 510.13 275.52 510.23 274.59 509.51 C 272.76 507.07 271.46 504.29 269.84 501.73 C 265.44 505.38 262.12 510.08 258.26 514.25 C 252.37 520.72 246.7 527.37 240.87 533.88 C 237.09 538.21 232.97 542.24 229.66 546.95 C 253.17 579.12 277.74 610.52 301.41 642.58 C 302.81 644.5 304.28 646.38 305.83 648.19 C 307.85 650.85 309.73 653.6 311.87 656.17 C 312.12 656.49 312.62 657.14 312.87 657.46 C 318.27 665.27 324.34 672.59 329.84 680.33 C 331.29 682.11 329.2 684.76 327.1 684.17 C 325.72 683.39 324.85 682.01 323.8 680.89 C 320.68 685.31 313.57 686.6 310.26 681.68 C 275.07 635.13 239.99 588.49 204.78 541.94 C 222.85 521.52 240.86 501.05 259.05 480.73 C 248.79 459.77 239.09 438.47 231.74 416.3 C 225.72 398.56 221.41 380.29 218.13 361.86 C 210.99 335.65 205.99 308.92 201.57 282.13 C 190.68 281.64 179.35 280.04 170.03 273.97 C 162.68 269.43 157.52 262.35 152.54 255.47 C 150.56 252.98 149.99 249.42 151.09 246.44 C 155.86 249.02 158.9 253.62 162.79 257.23 C 168.79 262.98 175.67 268.21 183.72 270.63 C 184.87 271.01 186.03 271.38 187.19 271.75 C 186.66 271.77 185.61 271.82 185.08 271.84 C 186.42 273.04 187.78 274.23 189.13 275.43 C 188.06 275.39 186.99 275.36 185.93 275.34 C 191.02 276.1 196.14 276.98 201.31 276.81 C 199.17 276.06 196.9 275.81 194.65 275.66 C 198.72 274 203.09 273.87 207.29 275.11 C 206.45 275.74 205.61 276.38 204.78 277.02 C 206.44 276.96 208.11 276.86 209.78 276.77 C 209.7 276.46 209.54 275.82 209.46 275.5 C 209.31 274.72 209.01 273.15 208.86 272.37 C 209.74 271.83 210.61 271.28 211.47 270.72 C 212.71 269.76 214.22 269.26 215.78 269.65 C 218.92 270.43 221.9 268.95 224.71 267.74 C 229.34 265.69 233.71 262.99 237.46 259.57 C 242.75 255.03 246.75 248.76 247.95 241.84 C 248.35 236.53 246.64 231.3 244.2 226.65 C 241.53 227.76 238.13 229.93 235.51 227.51 C 231.75 224.11 233.16 218.58 233.89 214.22 C 222.83 205.8 208.87 201.51 195.02 201.63 C 180.39 202.06 166.14 208.52 155.73 218.73 C 152.8 221.66 149.94 224.85 148.37 228.74 C 146.36 232.96 146.53 237.75 145.35 242.21 C 144.06 246.86 146.24 251.63 145.21 256.32 C 142.31 254.14 141.14 250.5 139.74 247.3 C 136.76 240.3 138.03 232.55 139.05 225.28 C 137.18 224.89 135.25 224.51 133.65 223.4 C 118.4 213.66 103.18 203.87 87.92 194.15 C 82.11 190.73 79.21 183.54 79.92 176.99 C 80.15 174.52 81.6 171.78 84.21 171.24 C 86.3 170.82 88.15 172.11 89.83 173.14 C 103.23 181.75 116.66 190.31 130.06 198.91 C 132.86 200.76 135.95 202.28 138.32 204.7 C 141.02 207.39 141.39 211.81 145.02 213.62 C 149.19 209.14 153.57 204.72 158.92 201.65 C 157.82 199.46 153.633 194.959 156.08 194.89 C 263.615 191.873 219.24 663.371 561.638 488.58" fill="#1F1A17" stroke="#1F1A17" style="" id="path-8"/>
      <g>
        <title>BRACO2</title>
        <path d="M 814.658 819.659 C 822.338 827.309 826.5 836.13 833.82 844.13 C 836.97 847.29 839.52 851.06 843.04 853.87 C 837.74 846.3 831.76 839.23 826.12 831.92 C 823.26 828.05 819.32 824.71 818.12 819.88 C 817 815.65 816.686 814.867 818.626 810.757 C 819.996 809.147 820.62 807.67 821.53 808.5 C 847.83 840.96 872.7 875.23 889.16 913.85 C 892.86 921.95 895.4 930.53 899.49 938.44 C 909.24 959.16 917.3 980.62 925.22 1002.08 C 956.35 1000.281 971.35 1014.98 974.72 1018.32 C 976.62 1019.98 976.79 1022.73 978.39 1024.62 C 979.86 1026.41 982.562 1026.803 984.322 1028.343 C 991.845 1031.515 987.507 1055.711 983.199 1064.798 C 980.328 1072.094 972.03 1082.621 969.86 1082.481 C 963.96 1085.081 953.58 1089.8 947.11 1090.46 C 946.81 1093.91 939.05 1094.93 938.81 1090.96 C 938.49 1091.11 937.85 1091.41 937.53 1091.57 C 937.34 1095.11 934.41 1092.56 931.02 1090.85 C 927.91 1092.53 923.36 1092.11 924.19 1090.21 C 915.87 1088.41 908.12 1084.68 901.18 1079.81 C 901.13 1080.31 901.03 1081.33 900.98 1081.83 C 898.51 1080.75 886.49 1068.45 888.11 1067.03 C 885.89 1063.93 877.76 1045.16 879.21 1045.42 C 880.03 1038.89 880.33 1031.89 884.24 1026.31 C 886.38 1023.39 888.36 1019.85 891.9 1018.47 C 891.81 1019.19 891.64 1020.62 891.55 1021.33 C 897.22 1015.29 904.06 1010.44 911.56 1006.93 C 902.19 970.46 892.3 933.49 873.42 900.59 C 855.18 872.94 833.403 849.147 809.913 825.887" fill="#1F1A17" stroke="#1F1A17" style="" id="path-8"/>
      </g>
      <path d="m284.45 485.03c6.83-8.4 14.02-16.55 21.56-24.33 4.35 4.1 8.16 8.71 12.1 13.2 32.98 37.02 65.89 74.1 98.84 111.14 3.7 3.81 8.43 6.33 12.82 9.2401 33.69 21.8 70.98 38.65 110.5 46.4 12.73 2.76 25.76 3.56 38.72 4.59 18.23 0.63 36.44-0.97 54.55-2.92 16.73-2.62 33.32-6.4 49.33-12 40.47 31.74 80.53 64.01 120.89 95.89 6.9 5.84 14.44 10.95 21.06 17.1-0.33 4.02-2.96 7.35-4.56 10.95-16.79 33.61-33.07 67.47-49.85 101.09-3.87 7.66-7.2 15.6-11.48 23.04-3.1-4.56-5.36-9.58-7.81-14.49-9.86-19.61-19.68-39.23-29.57-58.82-1.58 0.24-3.15 0.51-4.71 0.79-0.19 1.72-0.36 3.46-0.54 5.21-3.07-3.85-4.79-8.51-6.95-12.86-5.0699 0.67-10.03 1.97-15.01 3.09-0.14 42.25 0.43 84.49 0.09 126.73 0.2-2.42 0.49-4.83 0.95-7.21 0.28 40.38 0.16 80.76 0.47 121.14-0.02 11.97 0.73 23.96 0.06 35.93-40.51-8.75-79.61-22.74-118.76-36.1-40.1-13.84-80.42-27.53-122.08-35.9-32.57-6.56-65.97-9.32-99.15-7.16-17.11 1.37-34.03 4.27-50.75 8.02 1.71-13.28 5.28-26.26 7.05-39.54 3.82-15.96 6.26-32.22 9.63-48.28 13.71-72.38 27.89-144.68 41.63-217.04 0.26-2.74-3.04-2.59-4.85-2.14-0.38-1.64-0.86-3.2599-1.42-4.83-1.47-3.88-6-6.41-10.01-4.94-2.76 0.78-4.04 3.52-5.36 5.8-0.51 0.72-1.02 1.45-1.54 2.18-0.15-2.71 0.58-5.75-1.02-8.15-6.71-7.44-12.41-15.71-18.67-23.51-2.54-2.9901-4.42-6.65-7.74-8.88-0.25-0.32-0.75-0.97-1-1.29-1.42-3.07-3.48-5.78-6.04-7.98-1.55-1.81-3.02-3.69-4.42-5.61-23.67-32.06-48.24-63.46-71.75-95.63 3.31-4.71 7.43-8.74 11.21-13.07 5.83-6.51 11.5-13.16 17.39-19.63 3.86-4.17 7.18-8.87 11.58-12.52 1.62 2.56 2.92 5.34 4.75 7.78 0.93 0.72 1.8 0.62 2.59-0.28 2.61-5.14 1.89-11.06 1.36-16.57-0.39-1.76 1.48-2.65 2.4-3.83 2.15 2.65 3.9 5.6 6.02 8.27 1.27 1.84 5.06 0.45 3.72-1.91-1.4802-3.7102-4.2702-6.7102-6.2302-10.16z" fill="#007CC2" stroke="#007CC2" id="path-9"/>
      <path d="m163.89 188.79c1.06 2.08 1.89 4.26 3 6.31 0.39 0.41 1.16 1.23 1.55 1.64-2.7 0.66-5.11 2.09-7.54 3.38 1.66-3.58 2.51-7.43 2.99-11.33z" fill="#FEFDFC" stroke="#FEFDFC" id="path-10"/>
      <path d="m169.9 195.31c8.82-2.67 17.95-5.49 27.35-4.64 0.38 1.09 0.72 2.2 1.04 3.32-9.47-1.08-19.11 0.19-28.1 3.3-0.43-0.14-1.31-0.42-1.75-0.55-0.39-0.41-1.16-1.23-1.55-1.64 0.76 0.05 2.26 0.15 3.01 0.21z" fill="#060304" stroke="#060304" id="path-11"/>
      <path d="m757.15 197.81c-2.55-2.34-6.46-3.69-7.58-7.24 12.25 7.71 23.79 16.63 34.11 26.78 8.44 10.21 15.63 21.44 21.73 33.19-0.65-0.34-1.2599-0.71-1.85-1.12-12.46-19.59-28.24-37.14-46.41-51.61z" fill="#FEFCF9" stroke="#FEFCF9" id="path-12"/>
      <path d="m170.19 197.29c8.99-3.11 18.63-4.38 28.1-3.3 2.98 2.45 6.78 0.35 10.14 1.58 7.61 1.96 15.19 4.74 21.52 9.51-4.56-1.74-8.87-4.1-13.57-5.47-17.3-5.3-36.8-4.59-53.05 3.73-7.59 3.69-13.65 9.75-18.36 16.66 4.11-11.16 14.53-18.51 25.22-22.71z" fill="#FDFDFD" stroke="#FDFDFD" id="path-13"/>
      <g style="visibility: hidden;">
        <title>MAO1</title>
        <path d="m155.73 218.73c10.41-10.21 24.66-16.67 39.29-17.1 13.85-0.12 27.81 4.17 38.87 12.59-0.73 4.36-2.14 9.89 1.62 13.29 2.62 2.42 6.02 0.25 8.69-0.86 2.44 4.65 4.15 9.88 3.75 15.19-1.2 6.92-5.2 13.19-10.49 17.73-3.15 0.11-5.48 2.44-8.09 3.88-4.25 2.66-9.28 3.66-13.59 6.2-1.56-0.39-3.07 0.11-4.31 1.07-4.84-0.33-9.66 0.53-14.49 0.37-4.43-0.06-8.84-1.23-13.26-0.46-8.05-2.42-14.93-7.65-20.93-13.4-3.89-3.61-6.93-8.21-11.7-10.79-4.78-4.65-2.26-11.85-2.72-17.7 1.57-3.89 4.43-7.08 7.36-10.01z" fill="#F6C5B4" stroke="#F6C5B4" id="path-14"/>
      </g>
      <path d="m229.37 263.45c2.61-1.44 4.94-3.77 8.09-3.88-3.75 3.42-8.12 6.12-12.75 8.17-2.81 1.21-5.79 2.69-8.93 1.91 4.31-2.54 9.34-3.54 13.59-6.2z" fill="#FFFBF6" stroke="#FFFBF6" id="path-15"/>
      <path d="m228.09 270.18c4.31-1.79 7.92-4.78 11.83-7.26-5.76 7.03-14.78 10.98-23.59 12.46l0.6-1.04c3.63-1.6 7.59-2.36 11.16-4.16z" fill="#FEFCF9" stroke="#FEFCF9" id="path-16"/>
      <path d="m183.72 270.63c4.42-0.77 8.83 0.4 13.26 0.46 4.83 0.16 9.65-0.7 14.49-0.37-0.86 0.56-1.73 1.11-2.61 1.65-7.22 0.7-14.52 0.67-21.67-0.62-1.16-0.37-2.32-0.74-3.47-1.12z" fill="#FFFBF6" stroke="#FFFBF6" id="path-17"/>
      <path d="m185.08 271.84c0.53-0.02 1.58-0.07 2.11-0.09 7.15 1.29 14.45 1.32 21.67 0.62 0.15 0.78 0.45 2.35 0.6 3.13-0.54-0.1-1.63-0.29-2.17-0.39-4.2-1.24-8.57-1.11-12.64 0.55-1.84-0.05-3.68-0.15-5.52-0.23-1.35-1.2-2.71-2.39-4.05-3.59z" fill="#110502" stroke="#110502" id="path-18"/>
      <path d="m185.93 275.34c1.06 0.02 2.13 0.05 3.2 0.09 1.84 0.08 3.68 0.18 5.52 0.23 2.25 0.15 4.52 0.4 6.66 1.15-5.17 0.17-10.29-0.71-15.38-1.47z" fill="#FDFBFA" stroke="#FDFBFA" id="path-19"/>
      <path d="m207.29 275.11c0.54 0.1 1.63 0.29 2.17 0.39 0.08 0.32 0.24 0.96 0.32 1.27-1.67 0.09-3.34 0.19-5 0.25 0.83-0.64 1.67-1.28 2.51-1.91z" fill="#FEFDF9" stroke="#FEFDF9" id="path-20"/>
      <path d="m206.14 281.4c1.24-0.13 2.48-0.25 3.72-0.37 0.7 11.67 1.93 23.29 2.7 34.96-2.73-11.4-4.33-23.06-6.42-34.59z" fill="#FEFDFD" stroke="#FEFDFD" id="path-21"/>
      <path d="m258.14 453.11c3.84 5.33 7.15 11.04 10.45 16.71-0.31 0.35-0.91 1.06-1.22 1.42-3.06-6.05-6.32-12-9.23-18.13z" fill="#FEFCF9" stroke="#FEFCF9" id="path-22"/>
      <path d="m299.78 457.85c0.77-0.87 1.67-1.58 2.7-2.13-0.4 1.1-0.99 2.08-1.77 2.95-5.38 5.96-10.73 11.94-15.97 18.02-1.2 1.33-2.4 2.73-4.06 3.52 0.56-1.21 1.29-2.31 2.18-3.29 5.7-6.3 11.34-12.66 16.92-19.07z" fill="#FFFDFC" stroke="#FFFDFC" id="path-23"/>
      <path d="m277.37 483.31c1.78 0.68-0.77 3.9-2.16 3.25-0.59-1.37 0.95-2.85 2.16-3.25z" fill="#FDFCFB" stroke="#FDFCFB" id="path-24"/>
      <path d="m264.18 498.09c0.85-0.99 1.82-1.88 3.01-2.45-0.59 1.22-1.37 2.35-2.26 3.38-12.07 13.57-24.11 27.18-36.13 40.8-1.2 1.31-2.32 2.76-3.99 3.49 0.68-1.42 1.63-2.67 2.67-3.84 12.32-13.71 24.45-27.6 36.7-41.38z" fill="#FDFDFC" stroke="#FDFDFC" id="path-25"/>
      <path d="m690.92 546.92c3.01-1.18 6.06-2.36 9.33-2.53-19.6 8.6-40.95 12.79-62.23 14.38-0.19-0.39-0.58-1.18-0.77-1.57 2.89 0.1 5.8 0.17 8.69-0.13 15.28-1.87 30.37-5.26 44.98-10.15z" fill="#FFFBF6" stroke="#FFFBF6" id="path-26"/>
      <path d="m573.24 629.42c10.57 0.32 21.18 0.71 31.74-0.26 0.21 0.45 0.64 1.3701 0.85 1.83-11.23 0.16-22.46 0.24-33.69-0.02 0.28-0.39 0.83-1.16 1.1-1.55z" fill="#110502" stroke="#110502" id="path-27"/>
      <path d="m358.63 699.79c1.81-0.45 5.11-0.6 4.85 2.14-13.74 72.36-27.92 144.66-41.63 217.04-3.37 16.06-5.81 32.32-9.63 48.28-1.9-8.81 3.75-17.05 2.58-25.8-0.61-0.45-1.81-1.33-2.41-1.77 0.1-1.02 0.19-2.03 0.27-3.03 2.73-7.37 3.47-15.25 5.08-22.9 11.28-58.42 22.46-116.86 33.7-175.29 2.26-12.91 5.25-25.71 7.19-38.67z" fill="#19191A" stroke="#19191A" id="path-28"/>
      <path d="m709.36 834c2.3 3.46 4.58 7.04 5.87 11.03 0.54 6.98-0.18 13.99-0.5 20.98-0.25 23.34-1.55 46.66-1.2 70.01-0.25-2.38-0.47-4.76-0.97-7.09 0.16 22.39-1.1 44.75-1.06 67.14 0.08 1.38-0.36 2.72-0.97 3.96-0.03-55.35-0.96-110.69-1.17-166.03z" fill="#097DC0" stroke="#097DC0" id="path-29"/>
      <path d="m312.38 934.9c0.07 0.44 0.21 1.31 0.28 1.75-0.08 1-0.17 2.0099-0.27 3.03-3.39 20.81-7.93 41.42-11.68 62.18-0.45 2.36-0.75 4.84-2.12 6.9 0.28-3.82 1.18-7.54 1.89-11.29 3.96-20.86 7.86-41.72 11.9-62.57z" fill="#FDFBFA" stroke="#FDFBFA" id="path-30"/>
      <path d="m716.41 942.8c0.44 1.42 0.88 2.85 1.28 4.32-0.22 7.74-0.19 15.52-0.87 23.25-1.64-9.08-0.67-18.41-0.41-27.57z" fill="#060302" stroke="#060302" id="path-31"/>
      <g style="">
        <title>MAO2</title>
        <path d="M 909.35 972.96 C 913.71 983.03 917.55 993.38 920.98 1003.8 C 919.81 1003.83 918.64 1003.86 917.49 1003.9 C 915.23 993.47 911.88 983.32 909.35 972.96 Z" fill="#FEFCF9" stroke="#FEFCF9" id="path-32"/>
        <path d="M 934.76 1010.4 C 944.56 1007.29 954.68 1011.99 962.97 1017.02 C 967.82 1019.69 971.63 1024.09 976.95 1025.91 C 979.07 1026.36 979.69 1028.71 980.52 1030.43 C 982.54 1035.84 982.7 1042.17 980.57 1047.56 C 973.04 1061.37 959.14 1071.62 943.69 1074.65 C 931.39 1076.74 918.47 1075.09 907.22 1069.62 C 906.99 1065.46 907.51 1060.12 903.42 1057.6 C 900.61 1055.84 897.91 1058.43 895.79 1060.03 C 893.17 1056.88 891.14 1053.2 890.15 1049.22 C 890.71 1044.56 891.22 1039.74 893.44 1035.52 C 894.93 1032.71 896.86 1030.16 898.79 1027.65 C 908.08 1017.56 921.52 1012.64 934.76 1010.4 L 934.76 1010.4 Z" fill="#F6C5B4" stroke="#F6C5B4" id="path-34"/>
        <path d="M 892.97 1026.9 C 895.96 1020.62 901.75 1015.85 907.98 1012.98 C 902.79 1017.42 897.12 1021.37 892.97 1026.9 Z" fill="#FDFCFB" stroke="#FDFCFB" id="path-36"/>
        <path d="M 895.58 1029.6 C 896.21 1028.37 897.59 1028.11 898.79 1027.7 C 896.86 1030.21 894.93 1032.76 893.44 1035.57 C 891.22 1039.79 890.71 1044.61 890.15 1049.27 C 888.78 1042.32 891.57 1035.2 895.58 1029.6 L 895.58 1029.6 Z" fill="#FFFBF6" stroke="#FFFBF6" id="path-43"/>
        <path d="M 883.33 1051.1 C 885.34 1055.91 887.34 1060.79 890.69 1064.87 C 890.31 1065.17 889.57 1065.77 889.2 1066.07 C 886.15 1061.59 883.9 1056.52 883.33 1051.1 L 883.33 1051.1 Z" fill="#FEFDFD" stroke="#FEFDFD" id="path-47"/>
        <path d="M 974.83 1068.2 C 974.92 1065.19 978 1063.65 980.11 1062.02 C 978.78 1064.39 977.28 1066.84 974.83 1068.2 Z" fill="#FDFBFA" stroke="#FDFBFA" id="path-52"/>
        <path d="M 952.76 1077.8 C 956.63 1076.76 960.27 1075.05 964.03 1073.7 C 963.96 1074.44 963.8 1075.91 963.72 1076.65 C 952.6 1081.78 939.95 1082.43 928 1080.49 C 936.3 1080.17 944.74 1080.38 952.76 1077.8 L 952.76 1077.8 Z" fill="#FFFDFC" stroke="#FFFDFC" id="path-56"/>
        <path d="M 902.06 1078.5 C 902.69 1077.78 903.46 1076.12 904.65 1077.13 C 912.19 1081.24 920.41 1084.23 928.95 1085.4 C 930.79 1085.86 933.81 1085.32 933.38 1088.18 C 929.91 1086.09 926.01 1087.7 922.33 1086.63 C 915.15 1085.13 908.39 1082.14 902.06 1078.5 Z" fill="#FDFCFB" stroke="#FDFCFB" id="path-57"/>
        <path d="M 945.95 1086.2 C 950.01 1085.85 953.97 1084.86 958 1084.29 C 954.29 1086.09 950.22 1086.83 946.23 1087.68 L 945.95 1086.2 Z" fill="#FDFCFA" stroke="#FDFCFA" id="path-59"/>
        <path d="M 938.16 1086.1 C 939.45 1086.76 939.45 1087.45 938.17 1088.18 C 936.89 1087.48 936.88 1086.79 938.16 1086.1 Z" fill="#FFFDFC" stroke="#FFFDFC" id="path-60"/>
      </g>
      <path d="m715.38 977.8c0.46 1.42 0.91 2.85 1.33 4.32-0.23 8.39-0.26 16.82-0.89 25.21-1.66-9.74-0.73-19.72-0.44-29.53z" fill="#0A0302" stroke="#0A0302" id="path-33"/>
      <path d="m714.45 1012.8c0.51 2.09 0.95 4.2 1.23 6.36-0.23 7.73-0.23 15.48-0.87 23.19-0.76-3.4-1.01-6.89-0.86-10.35 0.22-6.41-0.07-12.82 0.5-19.2z" fill="#050302" stroke="#050302" id="path-35"/>
      <path d="m346.03 1015.4c6.71-1.22 13.59-1.28 20.38-0.74-10.95 0.98-21.86 2.33-32.65 4.4-4.25 0.83-8.6 1.36-12.63 3.03-5.51 1.91-11.27 3.1-16.98 4.2599l-0.79-0.37c-0.31-0.5599-0.94-1.6799-1.25-2.24 14.33-4.1699 29.11-6.5999 43.92-8.3399z" fill="#1A7DB2" stroke="#1A7DB2" id="path-37"/>
      <path d="m366.41 1014.6c35.43-2.13 71.03 2.78 105.26 11.81 2.39 0.73 4.82 1.3301 7.25 1.91l0.73 0.2c7.32 2.77 15.1 4.27 22.23 7.54-34.06-10.21-69.01-18.51-104.66-20.06-9.5-0.34-19-0.45-28.5-0.02-16.01 0.55-31.89 2.9399-47.59 6.05 4.03-1.67 8.38-2.2 12.63-3.03 10.79-2.0699 21.7-3.4199 32.65-4.3999z" fill="#FEFEFF" stroke="#FEFEFF" id="path-38"/>
      <path d="m368.72 1016c9.5-0.4301 19-0.32 28.5 0.02-2.09 1.54-4.81 0.91-7.22 1.01-6.61-0.26-13.23 0.22-19.83-0.15-0.36-0.22-1.09-0.66-1.45-0.88z" fill="#110502" stroke="#110502" id="path-39"/>
      <path d="m303.36 1026c-1.3 3.4601-4.25-1.58-1.25-2.24 0.31 0.56 0.94 1.68 1.25 2.24z" fill="#CBE2E9" stroke="#CBE2E9" id="path-40"/>
      <path d="m471.67 1026.5c2.51 0.03 5.7-0.6699 7.25 1.91-2.43-0.58-4.86-1.1801-7.25-1.91z" fill="#007CC2" stroke="#007CC2" id="path-41"/>
      <path d="m479.65 1028.6c4.63-0.6399 8.99 1.53 13.42 2.5 7.32 2.27 14.94 3.7301 21.99 6.77-0.7 0.05-2.09 0.16-2.79 0.2201 0.2 0.47 0.6 1.4299 0.8 1.8999-3.79-1.1-7.66-2.0399-11.19-3.85-7.13-3.2699-14.91-4.7699-22.23-7.54z" fill="#237BAD" stroke="#237BAD" id="path-42"/>
      <path d="m512.27 1038.1c0.7-0.0601 2.09-0.17 2.79-0.2201 7.11 1.39 13.87 4.25 20.8 6.37 24.14 7.91 48.11 16.33 72.1 24.64-6.7401-0.7999-13.32-2.51-19.95-3.88-4.4-0.9399-8.89-1.49-13.13-3-20.49-7.6599-40.94-15.47-61.81-22.01-0.2-0.47-0.6-1.43-0.8-1.8999z" fill="#107DBB" stroke="#107DBB" id="path-44"/>
      <path d="m385.59 1046.2c16.57-0.98 33.25-0.9399 49.82 0-2.77 0.5801-5.58 0.92-8.41 0.8301-8.33-0.1901-16.67-0.1-25.01-0.11-5.47-0.05-11.02 0.59-16.4-0.7201z" fill="#040100" stroke="#040100" id="path-45"/>
      <path d="m713.44 1047.8c0.55 2.08 1 4.1899 1.24 6.34-0.18 8.0599-0.26 16.15-0.87 24.2-0.75-3.41-0.99-6.89-0.86-10.36 0.2-6.7301-0.24-13.48 0.49-20.18z" fill="#060302" stroke="#060302" id="path-46"/>
      <path d="m374.86 1060.3c5.36-0.51 10.76-0.22 16.15-0.4099 2.41 0.0299 5.07-0.41 7.2 1.0299-7.26-0.0499-14.52 0.37-21.77 0.78-0.39-0.35-1.19-1.0501-1.58-1.4z" fill="#040202" stroke="#040202" id="path-48"/>
      <path d="m423.76 1061c1.78-1.39 4.12-0.9099 6.22-0.98 5.74 0.2001 11.49-0.14 17.22 0.36-0.62 0.3401-1.87 1.03-2.49 1.37-6.98-0.42-13.96-0.7799-20.95-0.75z" fill="#050101" stroke="#050101" id="path-49"/>
      <path d="m376.44 1061.7c7.25-0.41 14.51-0.83 21.77-0.78 8.52 0.0601 17.03 0.0601 25.55 0 6.99-0.0299 13.97 0.3301 20.95 0.75 80.72 3.77 160.41 20.22 237.82 42.93 2.2599 0.67 4.65 1.13 6.7 2.39-8.14-1.4501-15.94-4.42-23.96-6.39-71.84-19.67-145.46-34.19-219.99-37.58-21.5-0.9301-43.03-1.0601-64.53-0.01-26.59 1.1499-53.09 4.2-79.31 8.83 0.26-1.42 1.24-2.45 2.73-2.4 23.93-3.9001 48.06-6.5601 72.27-7.7401z" fill="#FDFCFB" stroke="#FDFCFB" id="path-50"/>
      <path d="m380.75 1063c21.5-1.05 43.03-0.92 64.53 0.01-1.08 1.23-2.77 1.09-4.24 1.1599-19.03-0.2999-38.07-0.3199-57.11-0.0599-1.21 0.06-2.27-0.32-3.18-1.11z" fill="#110502" stroke="#110502" id="path-51"/>
      <path d="m387.03 1067.7c1.17-0.85 2.37-1.7999 3.91-1.63 7.02-0.1 14.04 0.0601 21.06 0.05 8.04 0.34 16.14-0.45 24.15 0.42-3.46 0.23-6.93 0.3199-10.4 0.51-1.5 0.0199-3 0.1-4.49 0.21-11.41 0.0599-22.82-0.01-34.23 0.44z" fill="#090202" stroke="#090202" id="path-53"/>
      <path d="m387.03 1067.7c11.41-0.45 22.82-0.38 34.23-0.4399-15.03 1.3199-30.19 1.01-45.23 2.38-23.13 1.4-46.18 4.1899-68.96 8.36-3.58 9.39-6.39 19.06-9.61 28.58-2.79 8.39-5.7 16.74-8.16 25.24-0.11-0.2999-0.33-0.8999-0.44-1.2 5.4-18.11 10.9-36.19 16.5-54.24 27.01-4.6201 54.3-7.4801 81.67-8.6801z" fill="#FFFBF6" stroke="#FFFBF6" id="path-54"/>
      <path d="m421.26 1067.3c1.49-0.11 2.99-0.1901 4.49-0.21 11.72 1.0399 23.51 0.83 35.23 1.9399 77.56 5.2 153.83 22.04 228.32 43.71 15.26 102.01 30.15 204.08 45.34 306.09-0.12 10.34 1.85 20.57 2.71 30.85 2.5 26.12 5.01 52.24 7.61 78.35 0.21 2.4401 0.27 4.9 0.22 7.38-2.23-0.4-4.45-0.8-6.65-1.27 0.34-0.12 1.03-0.35 1.3799-0.47-23.96-5.12-48.37-8.62-72.91-8.62-31.2-0.24-62.39 4.89-91.95 14.82-25.35-108.97-50.76-217.93-76.09-326.88-0.8-4.63 0.34-9.7-1.97-13.98-2.57-4.51-9.67-4.8199-12.73-0.6699-2.83 3.7-0.67 8.5599-0.41 12.74-0.51-0.74-1.01-1.4501-1.51-2.14-11.59 32.18-23.25 64.33-34.9 96.5-1.79 4.59-3.01 9.46-5.49 13.76 1.07-6.8301 3.43-13.35 5.24-20 9.81-32.84 19.66-65.67 29.48-98.51 1.35-4.73 3.39-9.36 3.39-14.35-1.28-0.3-2.56-0.5801-3.83-0.8501 0.96-5.2 4.6-11.46 0.47-16.15-4.11-4.6101-12.38-2.03-13.4 4.01-35.24 117.57-70.58 235.11-105.79 352.69-2.35-0.72-4.64-1.59-6.83-2.6801-52.58-24.98-110.7-37.28-168.77-38.48 9.44-32.64 19.67-65.05 29.33-97.62 25.92-85.52 51.78-171.07 77.62-256.6 0.11 0.3 0.33 0.9 0.44 1.2 2.46-8.5 5.37-16.85 8.16-25.24 3.22-9.5199 6.03-19.19 9.61-28.58 22.78-4.17 45.83-6.96 68.96-8.36 15.04-1.3699 30.2-1.0599 45.23-2.3799z" fill="#8F5444" stroke="#8F5444" id="path-55"/>
      <path d="m712.33 1083.7c0.49 1.4301 0.98 2.88 1.41 4.37-0.08 7.67-0.43 15.34-0.66 23.01-1.86-0.47-3.72-0.9399-5.53-1.51 1.4-0.3199 2.79-0.67 4.2-1 0.2-8.2901-0.32-16.61 0.58-24.87z" fill="#0B0909" stroke="#0B0909" id="path-58"/>
      <path d="m706.19 1096.2c0.6 0.0299 1.81 0.11 2.42 0.15-0.07 2.7699-0.1 5.5599-0.06 8.36-0.59 0.01-1.78 0.0399-2.37 0.0499-0.7-2.8299-0.41-5.7299 0.01-8.5599z" fill="#1D7FB7" stroke="#1D7FB7" id="path-61"/>
      <path d="m495.15 1263.7c2.33 6.24 3.26 12.86 4.75 19.33 19.73 87.6 38.94 175.33 58.19 263.05-0.9901 0.38-1.98 0.76-2.96 1.16-19.5-91.32-39.01-182.64-58.39-273.98-0.72-3.16-1.43-6.3299-1.59-9.56z" fill="#825448" stroke="#825448" id="path-62"/>
      <path d="m737.35 1449.6c-0.86-10.28-2.83-20.51-2.71-30.85 5.8 39.35 11.59 78.7 17.42 118.04-2.3-0.5199-4.58-1.0299-6.88-1.46 0.05-2.48-0.01-4.9399-0.22-7.38-2.6-26.11-5.11-52.23-7.61-78.35z" fill="#FDFCFB" stroke="#FDFCFB" id="path-63"/>
      <path d="m49.03 1500.3c8.92-1.83 18.15-1.08 27.1 0.17-4.35 1.21-8.94 1.1-13.27 2.4-3.5 0.8099-6.58 2.72-9.89 4.02-2.43-0.9399-3.03-4.3199-3.94-6.59z" fill="#905747" stroke="#905747" id="path-64"/>
      <path d="m177.06 1500.5c35.57-0.0801 71.13 4.9099 105.5 14.02 1.74 0.5099 3.77 0.71 4.9 2.34-27.9-7.0601-56.46-11.7-85.24-12.85-8.6-0.29-17.24-0.88-25.84-0.3301 0.22-1.0799 0.45-2.1399 0.68-3.1799z" fill="#FEFEFC" stroke="#FEFEFC" id="path-65"/>
      <path d="m176.38 1503.7c8.6-0.5499 17.24 0.04 25.84 0.3301-2.47 1.51-5.47 0.86-8.21 0.96-6.1-0.3201-12.23 0.16-18.31-0.5l0.68-0.7901z" fill="#050201" stroke="#050201" id="path-66"/>
      <path d="m55.98 1511.3c10.51-6 23.17-5.49 34.85-4.9199 7.72 0.88 15.68 1.0699 23.09 3.64 46.79 15.73 90.64 38.99 133.03 64.04 5.28 2.9801 10.2 6.5901 15.61 9.3501 4.02 1.96 8.3-0.0801 11.94-1.87 0.84 2.8199 0.94 5.7899 1.04 8.73l0.03 0.5399c-21.49-1.8199-43.13-1.99-64.54-4.76-19.45-2.1599-38.79-6.0399-57.18-12.84-20.34-7.38-39.42-17.85-57.65-29.42-13.49-8.51-26.66-17.75-37.84-29.2-0.96-0.9799-1.69-2.1399-2.38-3.29z" fill="#8F5444" stroke="#8F5444" id="path-67"/>
      <path d="m303.47 1521.2c1.5-0.7899 3.31 0.15 4.65 0.91 1.27 1.05-1.28 1.11-1.83 0.87-0.91-0.34-2.95-0.48-2.82-1.78z" fill="#696360" stroke="#696360" id="path-68"/>
      <path d="m296.11 1524.9c0.44 0.1 1.32 0.2999 1.76 0.4099-0.86 15.94-0.28 31.95 0.14 47.91-0.07 5.26 0.35 10.52 0.41 15.8-2.63 0.13-5.26 0.28-7.89 0.39 1-21.57 3.13-43.07 5.58-64.51z" fill="#FDFDFC" stroke="#FDFDFC" id="path-69"/>
      <path d="m297.87 1525.3l0.78-0.6399c0.59 14.43-0.1 28.9 0.34 43.34-0.14 1.71 0.45 3.85-0.98 5.21-0.42-15.96-1-31.97-0.14-47.91z" fill="#030000" stroke="#030000" id="path-70"/>
      <path d="m575.05 1539.8c29.56-9.93 60.75-15.06 91.95-14.82 24.54 0 48.95 3.5 72.91 8.62-0.35 0.12-1.04 0.35-1.3799 0.47-13.3-2.35-26.69-4.47-40.19-5.0399-12.87-0.9401-25.8-0.91-38.67 0.0199-28.41 1.52-56.39 8.1001-83.06 17.86-0.4901-2.39-1.0201-4.7599-1.5601-7.11z" fill="#FEFDFB" stroke="#FEFDFB" id="path-71"/>
      <path d="m659.67 1529.1c12.87-0.9299 25.8-0.96 38.67-0.0199-6.29 1.8799-12.9 0.5599-19.34 0.8199-6.44-0.28-13.01 0.9301-19.33-0.8z" fill="#040101" stroke="#040101" id="path-72"/>
      <path d="m659.5 1544.5c26.89-1.76 53.97 0.26 80.39 5.5699 3.51 0.92 7.41 0.89 10.56 2.89-3.48 0.4601-6.87-0.61-10.26-1.15-26.71-4.9199-54.03-5.86-81.08-3.87 0.12-1.1599 0.25-2.3099 0.39-3.4399z" fill="#FFFDFC" stroke="#FFFDFC" id="path-73"/>
      <path d="m647.4 1545.4c0.53 0.0099 1.58 0.0099 2.1 0.0199-0.14 1.2301-0.26 2.49-0.37 3.77-0.92 0.17-1.83 0.36-2.74 0.5701 0.33-1.4702 0.65-2.9301 1.01-4.36z" fill="#FEFCF9" stroke="#FEFCF9" id="path-74"/>
      <path d="m578.82 1562.8c20.32-7.91 41.57-13.81 63.26-16.26-0.39 1.3099-0.78 2.6499-1.18 3.99-21.64 3.26-42.77 9.45-63.06 17.59 0.22-1.7101-1.29-4.5901 0.98-5.32z" fill="#FDFCFB" stroke="#FDFCFB" id="path-75"/>
      <path d="m664.84 1551.4c14.08-0.6901 28.22-0.65 42.3-0.01-0.4 0.3199-1.19 0.98-1.58 1.2999-13.03-0.88-26.1-0.88-39.12 0-0.4-0.3199-1.2-0.9699-1.6-1.2899z" fill="#040101" stroke="#040101" id="path-76"/>
      <path d="m666.44 1552.7c13.02-0.88 26.09-0.88 39.12 0 10.6 0.77 21.15 2.17 31.67 3.7001-3.43 1.9399-7.4 2.5599-11.04 3.98-7.46 2.3199-14.67 5.41-22.21 7.45-15.58 3.66-30.98 8.01-46.39 12.33 0.36-8.9801 1.11-17.94 1.56-26.9 2.42-0.1802 4.86-0.3802 7.29-0.5602z" fill="#FEFEFE" stroke="#FEFEFE" id="path-77"/>
      <path d="m871.71 1552.1c8.65-0.3099 17.51 0.88 25.59 4.0601-0.86 2.41-2.48 4.41-4.34 6.14-3.43-2.38-6.79-4.9301-10.69-6.48-3.41-1.5701-7.22-2.0101-10.56-3.7201z" fill="#8D5747" stroke="#8D5747" id="path-78"/>
      <path d="m814.76 1557.7c9.38-1.5 18.73-4.12 28.32-3.49 9.99 0.49 20.06 1.29 29.76 3.89 5.7 1.5 11.54 3.58 15.81 7.85-7.78 7.1901-17.36 12.04-26.7 16.87-33.52 15.79-69.24 28.7-106.57 30.63-31.95 1.65-63.82-2.5699-95.46-6.52-0.45-3.23 0.06-6.47 1.84-9.22 2.66 2.73 6.16 5.34 10.23 4.52 5.4-1.12 10.29-3.85 15.44-5.71 41.38-16.09 83.71-30.19 127.33-38.82z" fill="#8F5444" stroke="#8F5444" id="path-79"/>
      <path d="m645.53 1555.1c1.1299-0.1899 2.2599-0.36 3.41-0.48-1.2 16.19-2.72 32.34-4.32 48.5-2.66-0.23-5.25-0.86-7.84-1.36 2.78-15.57 6.51-30.99 8.75-46.66z" fill="#FDFDFC" stroke="#FDFDFC" id="path-80"/>
      <path d="m274.16 1566.7c2.19 0.99 4.37 2.03 6.68 2.78 0.11 6.8099-1.16 13.56-1.18 20.38-1.37 0.12-2.75 0.26-4.12 0.4-0.1-2.9401-0.2-5.91-1.04-8.73l-0.19-0.7401c2.96-4.2799 2.76-9.8599-0.15-14.09z" fill="#FDFBFA" stroke="#FDFBFA" id="path-81"/>
      <path d="m657.16 1585.4c2.3701-0.4301 4.6801-1.0901 7.02-1.66-3.5 3.83-4.29 9.17-2.42 13.98-1.78 2.75-2.29 5.99-1.84 9.22-1.59-0.4199-3.18-0.7999-4.76-1.14 0.76-6.79 1.18-13.62 2-20.4z" fill="#FDFBFA" stroke="#FDFBFA" id="path-82"/>
      <path d="m732.64 1632.8c3.4-0.7899 6.88-0.99 10.36-0.7999 5.78 0.25 11.65-0.61 17.35 0.7899-9.2 0.81-18.51 0.77-27.71 0.01z" fill="#030201" stroke="#030201" id="path-83"/>
    </g>
    <g style="" transform="matrix(1.124727, 0, 0, 1.124727, -139.686661, -65.401093)" id="group-3">
      <title>HEAD</title>
      <path d="m404.16 320.69c1.4 6.69 0.79 13.54 0.85 20.31-0.11 5.48 0.64 11.05-0.8 16.42-0.86-5.77-0.4-11.61-0.44-17.42 0.07-6.44-0.04-12.88 0.39-19.31z" fill="#060302" stroke="#060302" id="path-89"/>
      <path d="m683.76 423.92c1.6-0.81 3.38-1.03 5.16-0.98 8.38-0.02 16.76-0.05 25.14-0.02 2.07 0.04 4.3-0.12 6.14 1.05-12.14 0.55-24.3 0.53-36.44-0.05z" fill="#FBDACB" stroke="#FBDACB" id="path-90"/>
      <path d="m610.76 139.29c10.44-0.59 20.98-0.64 31.42 0.01-0.73 0.61-1.54 1.09-2.41 1.42-8.81-0.68-17.67-0.72-26.48-0.03-0.64-0.35-1.9-1.05-2.53-1.4z" fill="#110502" stroke="#110502" id="path-91"/>
      <path d="m428.76 237.86c1.17-1.6 3.76-4.87 5.63-2.37 1.95 4.6 1.13 9.82 0.92 14.68-0.45 3.43-0.92 6.86-1.53 10.28-0.41-2.04-0.81-4.1-0.48-6.17 0.78-6.04 1.19-12.21-0.04-18.22-1.51 0.6-3.02 1.17-4.5 1.8z" fill="#110502" stroke="#110502" id="path-92"/>
      <path d="m421.02 344c0.41-8.1-0.95-16.34 0.86-24.32 0.55 12.77 0.09 25.55 0.57 38.32-2.53-4.24-1.14-9.35-1.43-14z" fill="#0B0100" stroke="#0B0100" id="path-93"/>
      <path d="m405.15 368.68c4.33 24.81 13.68 48.51 25.63 70.6 15.14 27.98 34.66 53.51 57.32 75.82-0.94 0.09-1.98 0.34-2.69-0.47-41.97-31.06-71.77-78.82-79.44-130.64-0.8-5.06-0.8-10.2-0.82-15.31z" fill="#F3C6B5" stroke="#F3C6B5" id="path-94"/>
      <path d="m486.2 483.87c4.03 2.87 7.39 6.57 11.27 9.65 28.06 23.16 60.72 41.87 96.63 49.3 18.37 3.91 37.31 3.94 55.93 2.17 36.92-3.53 73.1-15.57 104.43-35.47 3.65-2.27 7.02-4.96 10.71-7.15-14.19 13.85-30.61 25.42-48.15 34.65-5.51 2.6-10.86 5.82-16.77 7.37-3.27 0.17-6.32 1.35-9.33 2.53-14.61 4.89-29.7 8.28-44.98 10.15-2.89 0.3-5.8 0.23-8.69 0.13 0.19 0.39 0.58 1.18 0.77 1.57-20.17 1.33-40.58-1.34-59.62-8.2-31.78-11.37-59.52-32.01-82.79-56.17-3.2101-3.44-6.6701-6.69-9.4101-10.53z" fill="#F5C5B5" stroke="#F5C5B5" id="path-95"/>
      <path d="m613.29 140.69c8.81-0.69 17.67-0.65 26.48 0.03 32.63 2.21 64.63 12.74 92.27 30.21 3.37 2.23 7.12 4.03 9.93 7-38.03-20.91-81.89-30.76-125.21-29.06-17.13 0.51-34.15 3.51-50.57 8.35-9.64 0.22-18.39 4.53-27.42 7.29 22.31-13.98 48.32-21.8 74.52-23.82z" fill="#FEFDFD" stroke="#FEFDFD" id="path-96"/>
      <path d="m656.2 52.75c45.01 22.86 86.73 52.03 124.44 85.56 2.31 2.04 4.47 4.3 7.08 5.99 5.25-16.28 10.47-32.58 15.69-48.88 0.96-2.86 1.6-5.87 3.08-8.54 13.98 46.69 28.33 93.28 42.57 139.89 20.34-11.75 40.79-23.34 61.2-34.98-4.45 46.14-14.81 91.78-31.45 135.07-3.35 9.12-7.47 17.94-10.97 26.99 23.21-2.7 46.47-5.06 69.69-7.7-7.04 10.8-16.57 19.81-26.77 27.61-20.47 15.33-44.55 25.05-69.04 31.88-9.0099 36.55-27.1 70.84-52.3 98.82-24.79 27.64-56.47 49.14-91.53 61.44-25.58 9.0099-52.86 13.17-79.96 12.05-35.53-1.88-69.47-16.18-98.22-36.66-11.18-7.92-21.69-16.75-31.61-26.19-22.66-22.31-42.18-47.84-57.32-75.82-11.95-22.09-21.3-45.79-25.63-70.6-0.52-3.72-1.36-7.5-0.94-11.26 1.44-5.37 0.69-10.94 0.8-16.42-0.06-6.77 0.55-13.62-0.85-20.31-0.39-3.23-0.01-6.49 0.07-9.72 0.64-11.58 1.05-23.32 4.23-34.55 2.85-10.15 9.05-18.83 13.77-28.13 1.99-3.58 3.69-7.44 6.53-10.43 1.48-0.63 2.99-1.2 4.5-1.8 1.23 6.01 0.82 12.18 0.04 18.22-0.33 2.07 0.07 4.13 0.48 6.17-0.5 4.02-1.5 7.97-2.02 11.99 4.16-3.86 6.82-9.57 12.28-11.85-1.07 6.3-4.23 11.93-6.89 17.65-4.94 9.8-9.93 19.59-14.12 29.74-1.62 3.69-0.89 7.8-1.15 11.7-1.81 7.98-0.45 16.22-0.86 24.32 0.29 4.65-1.1 9.76 1.43 14 2.85 19.71 9.22 38.78 17.87 56.68 2.7 5.09 6.43 9.54 9.79 14.2 21.52 28.47 46.84 54.31 76.11 74.86 27.64 19.25 59.73 33.88 93.8 35.43 43.82 1.36 88.05-9.89 125.66-32.5 19.26-11.7 36.99-26.22 51.42-43.58 22.75-35.49 33.98-78.03 32.7-120.11-1.09-32.09-9.18-64.11-24.39-92.44-6.1-11.75-13.29-22.98-21.73-33.19-10.32-10.15-21.86-19.07-34.11-26.78-31.24-19.9-67.62-31.4-104.49-34.36-1.61-0.1-3.21-0.13-4.81-0.13-0.85-0.08-2.55-0.23-3.39-0.31 1.08-0.45 2.15-0.93 3.23-1.41-8.66-0.7-17.36-0.42-26.04-0.36 0.21 0.46 0.64 1.38 0.85 1.84-0.79 0.07-2.39 0.2-3.18 0.26-31.19 1.29-62.1 11.76-87.12 30.56-19.05 14.09-34.92 31.94-49.35 50.61-2.15 2.95-5.49 5.23-9.27 5.01 0.74-4.92 4.62-8.54 5.9-13.17-1.3 0.62-2 1.95-2.82 3.06-3.98 6.08-7.7 12.32-11.29 18.64-1.83 2.81-4.06 6.27-7.74 6.56-2.36-0.05-3.43-2.55-4-4.46-1.8-6.97 0.13-14.19 2.24-20.85 2.23-5.62 5.61-10.7 9.41-15.37 19.83-26.63 43.61-50.83 72.16-68.1-1.32-11.95-10.17-21.4-20.07-27.37-21.04-12.76-45.79-17.66-66.94-30.18 76.2 4.48 152.39 9.59 228.61 14.04-0.72-18.4-8.12-35.64-15.26-52.33m-45.44 86.54c0.63 0.35 1.89 1.05 2.53 1.4-26.2 2.02-52.21 9.84-74.52 23.82-2.62 0.9-4.81 2.7-7.14 4.14-22.63 14.82-41.84 34.44-57.58 56.35-0.62 1.05-1.71 1.98-1.86 3.23l1.28-0.28c19.28-22.88 40.72-44.78 67.21-59.25 8.11-4.67 16.93-7.83 25.51-11.48 16.42-4.84 33.44-7.84 50.57-8.35 43.32-1.7 87.18 8.15 125.21 29.06-2.81-2.97-6.56-4.77-9.93-7-27.64-17.47-59.64-28-92.27-30.21 0.87-0.33 1.68-0.81 2.41-1.42-10.44-0.65-20.98-0.6-31.42-0.01m-124.56 344.58c2.74 3.84 6.2 7.09 9.41 10.53 23.27 24.16 51.01 44.8 82.79 56.17 19.04 6.86 39.45 9.53 59.62 8.2 21.28-1.59 42.63-5.78 62.23-14.38 5.91-1.55 11.26-4.77 16.77-7.37 17.54-9.23 33.96-20.8 48.15-34.65-3.69 2.19-7.06 4.88-10.71 7.15-31.33 19.9-67.51 31.94-104.43 35.47-18.62 1.77-37.56 1.74-55.93-2.17-35.91-7.43-68.57-26.14-96.63-49.3-3.8799-3.08-7.2399-6.78-11.27-9.65z" fill="#1F1A17" stroke="#1F1A17" id="path-97"/>
      <path d="m614.07 154c8.68-0.06 17.38-0.34 26.04 0.36-1.08 0.48-2.15 0.96-3.23 1.41-7.32-0.34-14.66-0.45-21.96 0.07-0.21-0.46-0.64-1.38-0.85-1.84z" fill="#110502" stroke="#110502" id="path-98"/>
      <path d="M 524.62 186.66 C 549.64 167.86 580.55 157.39 611.74 156.1 C 617.38 157.6 623.24 156.74 629 157.01 C 632.77 157.18 636.62 157.27 640.27 156.08 C 641.87 156.08 643.47 156.11 645.08 156.21 C 681.95 159.17 718.33 170.67 749.57 190.57 C 750.69 194.12 754.6 195.47 757.15 197.81 C 775.32 212.28 791.1 229.83 803.56 249.42 C 804.15 249.83 804.76 250.2 805.41 250.54 C 820.62 278.87 828.71 310.89 829.8 342.98 C 831.08 385.06 819.85 427.6 797.1 463.09 C 782.67 480.45 764.94 494.97 745.68 506.67 C 715.123 525.04 680.197 535.911 644.67 538.613 C 636.47 539.237 628.238 539.425 620.02 539.17 C 585.95 537.62 553.86 522.99 526.22 503.74 C 496.95 483.19 471.63 457.35 450.11 428.88 C 446.75 424.22 443.02 419.77 440.32 414.68 C 431.67 396.78 425.3 377.71 422.45 358 C 421.97 345.23 422.43 332.45 421.88 319.68 C 422.14 315.78 421.41 311.67 423.03 307.98 C 427.22 297.83 432.21 288.04 437.15 278.24 C 439.81 272.52 442.97 266.89 444.04 260.59 C 438.58 262.87 435.92 268.58 431.76 272.44 C 432.28 268.42 433.28 264.47 433.78 260.45 C 434.39 257.03 434.86 253.6 435.31 250.17 C 436.78 244.15 441.08 239.52 444.68 234.68 C 445.54 233.41 446.77 232.44 448.29 232.06 C 446.18 238.72 444.25 245.94 446.05 252.91 C 446.62 254.82 447.69 257.32 450.05 257.37 C 453.73 257.08 455.96 253.62 457.79 250.81 C 461.38 244.49 465.1 238.25 469.08 232.17 C 469.9 231.06 470.6 229.73 471.9 229.11 C 470.62 233.74 466.74 237.36 466 242.28 C 469.78 242.5 473.12 240.22 475.27 237.27 C 489.7 218.6 505.57 200.75 524.62 186.66 M 488.86 238.86 C 489.72 257.61 490.14 238.9 488.86 238.86" fill="#F6C5B4" stroke="#F6C5B4" id="path-99"/>
      <path d="m611.74 156.1c0.79-0.06 2.39-0.19 3.18-0.26 7.3-0.52 14.64-0.41 21.96-0.07 0.84 0.08 2.54 0.23 3.39 0.31-3.65 1.19-7.5 1.1-11.27 0.93-5.76-0.27-11.62 0.59-17.26-0.91z" fill="#FEDCD0" stroke="#FEDCD0" id="path-100"/>
      <path d="m538.77 164.51c9.03-2.76 17.78-7.07 27.42-7.29-8.58 3.65-17.4 6.81-25.51 11.48-26.49 14.47-47.93 36.37-67.21 59.25l-1.28 0.28c0.15-1.25 1.24-2.18 1.86-3.23 15.74-21.91 34.95-41.53 57.58-56.35 2.33-1.44 4.52-3.24 7.14-4.14z" fill="#F0C7B6" stroke="#F0C7B6" style="" id="path-101"/>
      <path style="fill: rgb(216, 216, 216); stroke: rgb(0, 0, 0); stroke-width: 12.563px; visibility: hidden;" d="M 563.72 243.302 C 566.792 264.838 570.439 286.189 580.201 305.713" id="path-102"/>
      <path style="fill: rgb(216, 216, 216); stroke: rgb(0, 0, 0); stroke-width: 12.563px; visibility: hidden;" d="M 590.801 253.902 C 577.079 276.772 558.85 294.096 540.168 312.778" id="path-103"/>
      <path style="fill: rgb(216, 216, 216); stroke: rgb(0, 0, 0); stroke-width: 12.563px; visibility: hidden;" d="M 677.943 291.584 C 677.943 312.047 689.716 331.605 689.716 351.638" id="path-104"/>
      <path style="fill: rgb(216, 216, 216); stroke: rgb(0, 0, 0); stroke-width: 12.563px; visibility: hidden;" d="M 703.852 305.713 C 693.536 322.904 675.006 332.493 663.813 349.287" id="path-105"/>
    </g>
  </g>
  <g style="visibility: hidden;">
    <title>BONECO_BACKUP</title>
    <path style="stroke: rgb(31, 26, 23); stroke-width: 5px; fill: rgb(0, 124, 194);" d="M 184.099 175.859 L 161.813 197.671 L 194.056 237.026 L 190.691 314.024 L 221.22 318.081 C 262.176 337.183 279.416 326.362 279.416 326.362 L 285.43 270.751 L 296.744 290.743 L 317.813 246.51 L 279.274 215.013 C 271.791 220.043 255.129 231.23 239.576 227.069 C 225.071 223.188 213.541 209.638 206.434 202.39 C 205.868 201.814 205.331 201.277 204.822 200.788 C 200.092 193.697 184.403 176.619 184.099 175.859 Z">
      <title>CORPO</title>
    </path>
    <g>
      <title>BRACO2</title>
      <path style="stroke: rgb(31, 26, 23); stroke-width: 4px; fill: rgba(31, 26, 23, 0.63); fill-opacity: 0;" d="M 308.099 268.968 C 312.218 263.045 332.881 287.513 335.688 312.249"/>
      <path style="stroke: rgb(31, 26, 23); fill: rgb(246, 197, 180); stroke-width: 3px;" d="M 334 311.68 C 331.841 312.491 323.055 318.548 325.876 325.439 C 329.128 330.925 335.353 331.507 340.237 331.593 C 347.395 329.131 351.525 325.222 351.726 319.148 C 350.228 311.68 336.511 309.362 336.134 311.625"/>
    </g>
    <g>
      <title>BRACO1</title>
      <path style="stroke: rgb(31, 26, 23); fill: rgb(246, 197, 180); transform-box: fill-box; transform-origin: 50% 50%; stroke-width: 3px;" d="M 139.119 113.8 C 136.821 114.663 127.469 121.11 130.472 128.445 C 133.933 134.284 140.559 134.903 145.757 134.995 C 153.376 132.374 157.772 128.214 157.986 121.749 C 156.392 113.8 141.792 111.333 141.39 113.741" transform="matrix(-1, 0, 0, -1, -0.00001, -0.000002)"/>
      <path style="stroke: rgb(31, 26, 23); stroke-width: 4px; fill: rgba(31, 26, 23, 0.63); fill-opacity: 0; transform-box: fill-box; transform-origin: 50% 50%;" d="M 146.815 134.344 C 151.446 127.684 174.677 155.193 177.833 183.003" transform="matrix(-1, 0, 0, -1, -0.000034, 0)"/>
    </g>
    <g style="" transform="matrix(1, 0, 0, 1, 63.386631, 24.68152)">
      <title>PERNA_1</title>
      <path style="stroke: rgb(31, 26, 23); fill: rgb(143, 84, 68); stroke-width: 4px; stroke-opacity: 0;" d="M 123.161 299.932 C 125.048 304.335 88.414 412.393 87.222 409.612 C 89.297 403.386 139.261 416.039 137.186 422.265 C 136.858 421.937 151.786 374.503 159.966 349.579 C 162.922 340.575 164.996 334.508 165.152 334.664 L 168.138 306.438 C 165.316 293.688 133.697 286.857 123.161 299.503"/>
      <path style="stroke: rgb(31, 26, 23); fill-opacity: 0; stroke-width: 5px; fill: rgb(143, 84, 68);" d="M 169.945 297.712 C 171.493 299.661 136.189 289.585 125.351 298.452 C 124.457 299.346 88.138 411.125 89.312 409.951 C 91.659 403.496 138.964 415.932 137.177 420.847 C 137.177 421.329 165.584 337.935 165.584 337.38"/>
    </g>
    <g style="">
      <title>PERNA_2</title>
      <path style="stroke: rgb(31, 26, 23); stroke-width: 0.0938px; fill: rgb(143, 84, 68);" d="M 230.416 331.246 C 230.714 327.669 278.781 334.959 278.28 340.974 L 297.348 442.54 C 295.787 438.637 248.744 446.725 249.094 447.599 L 229.248 354.983 L 230.416 331.246 Z"/>
      <path style="stroke: rgb(31, 26, 23); fill-opacity: 0; stroke-width: 5px; fill: rgb(143, 84, 68);" d="M 230.415 363.156 L 248.316 451.88 C 247.027 449.302 294.991 441.719 297.737 447.21 C 296.274 449.404 281.271 339.796 281.782 339.029 C 280.278 333.515 231.467 324.854 232.361 328.133"/>
    </g>
    <g>
      <title>PE1</title>
      <line style="fill: rgb(31, 26, 23); stroke: rgb(31, 26, 23); stroke-width: 5px;" x1="177.602" y1="435.621" x2="170.31" y2="454.132"/>
      <path style="stroke: rgb(0, 0, 0); fill: rgb(143, 84, 68); stroke-width: 4px;" d="M 171.513 449.16 C 159.696 441.282 146.296 437.665 133.19 433.297 C 121.385 429.362 121.507 440.979 129.003 446.601 C 140.36 455.118 156.634 457.391 165.581 459.94 C 168.776 460.85 179.516 457.457 174.452 452.393"/>
    </g>
    <g>
      <title>PE2</title>
      <path style="fill: rgb(143, 84, 68); stroke: rgb(0, 0, 0); stroke-width: 4px;" d="M 270.384 455.745 C 285.286 445.504 299.025 443.713 315.372 443.399 C 326.95 443.177 335.374 447.072 335.476 451.277 C 335.653 458.587 322.796 463.923 316.489 465.07 C 301.628 467.772 282.576 466.589 271.616 458.958"/>
      <line style="fill: rgb(31, 26, 23); stroke: rgb(31, 26, 23); stroke-width: 5px;" x1="269.517" y1="442.857" x2="270.849" y2="458.503"/>
    </g>
    <g style="" transform="matrix(0.485717, 0, 0, 0.485717, 130.341461, -0.000108)" id="group-2">
      <title>ROPE</title>
      <path style="fill:#E9B264;" d="M217.292,152.579c0,0.001,15,0.001,15,0.001c0-4.144,3.358-7.501,7.5-7.501h30.414&#10;&#9;&#9;c4.136,0,7.5-3.364,7.5-7.5s-3.364-7.5-7.5-7.5h-70.414c-4.136,0-7.5,3.364-7.5,7.5s3.364,7.5,7.5,7.5h10&#10;&#9;&#9;C213.935,145.079,217.292,148.437,217.292,152.579z" id="path-84"/>
      <path style="fill:#F59B45;" d="M209.792,160.079h-10c-4.136,0-7.5,3.364-7.5,7.5s3.364,7.5,7.5,7.5h70.414&#10;&#9;&#9;c4.136,0,7.5-3.364,7.5-7.5s-3.364-7.5-7.5-7.5h-30.414c-4.142,0-7.499-3.357-7.5-7.499h-15&#10;&#9;&#9;C217.292,156.721,213.934,160.079,209.792,160.079z" id="path-85"/>
      <path style="fill:#E9B264;" d="M199.792,205.079h70.414c4.136,0,7.5-3.364,7.5-7.5s-3.364-7.5-7.5-7.5h-70.414&#10;&#9;&#9;c-4.136,0-7.5,3.364-7.5,7.5S195.657,205.079,199.792,205.079z" id="path-86"/>
      <path style="fill:#F59B45;" d="M 265.951 220.079 L 239.632 220.079 C 242.651 225.008 245.659 230.014 248.635 235.072 C 252.251 232.981 256.837 234.208 258.909 237.794 C 278.122 271.034 310.353 331.714 310.353 364.648 C 310.354 406.197 274.408 440 232.858 440 C 191.308 440 159.646 406.197 159.646 364.646 C 159.646 327.327 200.819 254.461 221.595 220.078 L 204.047 220.078 C 165.724 284.304 144.646 331.807 144.646 364.646 C 144.646 414.468 183.037 455 232.858 455 C 282.679 455 325.354 414.468 325.354 364.646 C 325.354 335.557 304.275 284.306 265.951 220.079 Z" id="path-87"/>
      <rect x="227.5" y="7.5" style="fill:#F59B45;" width="15" height="107.579" id="rect-0"/>
      <path style="fill:#34150C;" d="M 281.563 216.99 C 288.223 213.078 292.706 205.844 292.706 197.578 C 292.706 191.82 290.529 186.562 286.959 182.578 C 290.53 178.594 292.706 173.336 292.706 167.578 C 292.706 161.82 290.529 156.562 286.959 152.578 C 290.53 148.594 292.706 143.336 292.706 137.578 C 292.706 125.171 282.613 115.078 270.206 115.078 L 257.5 115.078 L 257.5 7.5 C 257.5 3.358 254.142 0 250 0 C 245.858 0 242.5 3.358 242.5 7.5 L 242.5 115.079 L 227.5 115.079 L 227.5 7.5 C 227.5 3.358 224.142 0 220 0 C 215.858 0 212.5 3.358 212.5 7.5 L 212.5 115.079 L 199.792 115.079 C 187.385 115.079 177.292 125.172 177.292 137.579 C 177.292 143.337 179.469 148.595 183.039 152.579 C 179.468 156.563 177.292 161.821 177.292 167.579 C 177.292 173.337 179.469 178.595 183.039 182.579 C 179.468 186.563 177.292 191.821 177.292 197.579 C 177.292 205.845 181.775 213.079 188.435 216.991 C 160.523 264.329 128.575 321.253 128.575 365.182 C 128.575 423.274 174.766 470 232.858 470 C 290.95 470 340.354 422.739 340.354 364.646 C 340.354 325.537 309.476 264.33 281.563 216.99 Z M 232.858 455 C 183.037 455 144.646 414.468 144.646 364.646 C 144.646 330.737 165.724 284.304 204.047 220.078 L 221.595 220.078 C 200.819 254.461 159.646 327.327 159.646 364.646 C 159.646 406.197 191.308 440 232.858 440 C 274.408 440 310.354 406.197 310.354 364.646 C 310.354 331.713 278.123 271.032 258.91 237.792 C 256.837 234.206 252.251 232.979 248.663 235.052 C 245.072 237.151 243.856 241.722 245.923 245.299 C 277.337 299.648 295.354 343.148 295.354 364.646 C 295.354 397.925 266.137 425 232.858 425 C 199.579 425 174.646 397.925 174.646 364.646 C 174.646 339.66 199.313 284.474 239.175 220.078 L 239.632 220.078 L 265.951 220.078 C 304.275 284.305 325.354 335.557 325.354 364.646 C 325.354 414.468 282.679 455 232.858 455 Z M 192.292 137.579 C 192.292 133.443 195.656 130.079 199.792 130.079 L 270.206 130.079 C 274.342 130.079 277.706 133.443 277.706 137.579 C 277.706 141.715 274.342 145.079 270.206 145.079 L 239.792 145.079 C 235.65 145.079 232.292 148.437 232.292 152.579 C 232.293 156.722 235.65 160.079 239.792 160.079 L 270.206 160.079 C 274.342 160.079 277.706 163.443 277.706 167.579 C 277.706 171.715 274.342 175.079 270.206 175.079 L 199.792 175.079 C 195.656 175.079 192.292 171.715 192.292 167.579 C 192.292 163.443 195.656 160.079 199.792 160.079 L 209.792 160.079 C 213.934 160.079 217.291 156.722 217.292 152.58 C 217.292 148.436 213.934 145.079 209.792 145.079 L 199.792 145.079 C 195.657 145.079 192.292 141.714 192.292 137.579 Z M 199.792 190.079 L 270.206 190.079 C 274.342 190.079 277.706 193.443 277.706 197.579 C 277.706 201.715 274.342 205.079 270.206 205.079 L 199.792 205.079 C 195.656 205.079 192.292 201.715 192.292 197.579 C 192.292 193.443 195.657 190.079 199.792 190.079 Z" id="path-88"/>
    </g>
    <path style="stroke: rgb(0, 0, 0); stroke-width: 4px; fill: rgb(246, 197, 180);" d="M 261.114 104.813 C 236.985 98.781 221.543 103.453 204.658 120.338 C 199.909 125.087 195.248 141 195.248 147.156 C 195.248 169.486 206.952 194.026 228.651 201.26 C 236.219 203.782 250.589 206.236 258.29 205.494 C 266.564 204.696 278.291 199.07 286.048 190.909 C 313.386 162.15 292.123 120.335 260.854 104.7">
      <title>CABECA</title>
    </path>
    <g>
      <title>OLHOS</title>
      <path style="fill: rgb(216, 216, 216); stroke: rgb(0, 0, 0); fill-opacity: 0; stroke-width: 3px;" d="M 229.119 129.392 C 231.131 135.431 232.717 143.398 237.373 148.053"/>
      <path style="fill: rgb(216, 216, 216); stroke: rgb(0, 0, 0); fill-opacity: 0; stroke-width: 3px;" d="M 239.526 131.904 C 232.235 133.727 224.68 142.085 219.429 147.336"/>
      <path style="fill: rgb(216, 216, 216); stroke: rgb(0, 0, 0); fill-opacity: 0; stroke-width: 3px;" d="M 257.828 134.775 C 257.828 142.74 261.047 146.966 266.441 152.36"/>
      <path style="fill: rgb(216, 216, 216); stroke: rgb(0, 0, 0); fill-opacity: 0; stroke-width: 3px;" d="M 267.877 135.852 C 260.617 141.037 255.137 148.089 247.421 152.719"/>
    </g>
  </g>
  <g transform="matrix(1, 0, 0, 1, -2.751854, 0.000108)" style="" id="group-4">
    <title>BONECO_BACKUP</title>
    <path style="stroke: rgb(31, 26, 23); stroke-width: 5px; fill: rgb(0, 124, 194);" d="M 184.099 175.859 L 161.813 197.671 L 194.056 237.026 L 190.691 314.024 L 221.22 318.081 C 262.176 337.183 279.416 326.362 279.416 326.362 L 285.43 270.751 L 296.744 290.743 L 317.813 246.51 L 279.274 215.013 C 271.791 220.043 255.129 231.23 239.576 227.069 C 225.071 223.188 213.541 209.638 206.434 202.39 C 205.868 201.814 205.331 201.277 204.822 200.788 C 200.092 193.697 184.403 176.619 184.099 175.859 Z">
      <title>CORPO</title>
    </path>
    <g style="">
      <title>BRACO1</title>
      <path style="stroke: rgb(31, 26, 23); fill: rgb(246, 197, 180); transform-box: fill-box; transform-origin: 50% 50%; stroke-width: 3px;" d="M 139.119 113.8 C 136.821 114.663 127.469 121.11 130.472 128.445 C 133.933 134.284 140.559 134.903 145.757 134.995 C 153.376 132.374 157.772 128.214 157.986 121.749 C 156.392 113.8 141.792 111.333 141.39 113.741" transform="matrix(-1, 0, 0, -1, -0.00001, -0.000002)"/>
      <path style="stroke: rgb(31, 26, 23); stroke-width: 4px; fill: rgba(31, 26, 23, 0.63); fill-opacity: 0; transform-box: fill-box; transform-origin: 50% 50%;" d="M 146.815 134.344 C 151.446 127.684 174.677 155.193 177.833 183.003" transform="matrix(-1, 0, 0, -1, -0.000034, 0)"/>
    </g>
    <g style="">
      <title>BRACO2</title>
      <path style="stroke: rgb(31, 26, 23); stroke-width: 4px; fill: rgba(31, 26, 23, 0.63); fill-opacity: 0;" d="M 308.099 268.968 C 312.218 263.045 332.881 287.513 335.688 312.249"/>
      <path style="stroke: rgb(31, 26, 23); fill: rgb(246, 197, 180); stroke-width: 3px;" d="M 334 311.68 C 331.841 312.491 323.055 318.548 325.876 325.439 C 329.128 330.925 335.353 331.507 340.237 331.593 C 347.395 329.131 351.525 325.222 351.726 319.148 C 350.228 311.68 336.511 309.362 336.134 311.625"/>
    </g>
    <g style="" transform="matrix(1, 0, 0, 1, 63.386631, 24.68152)">
      <title>PERNA_1</title>
      <g style="" transform="matrix(1, 0, 0, 1, -63.387001, -24.681999)">
        <title>PE1</title>
        <line style="fill: rgb(31, 26, 23); stroke: rgb(31, 26, 23); stroke-width: 5px;" x1="177.602" y1="435.621" x2="170.31" y2="454.132"/>
        <path style="stroke: rgb(0, 0, 0); fill: rgb(143, 84, 68); stroke-width: 4px;" d="M 171.513 449.16 C 159.696 441.282 146.296 437.665 133.19 433.297 C 121.385 429.362 121.507 440.979 129.003 446.601 C 140.36 455.118 156.634 457.391 165.581 459.94 C 168.776 460.85 179.516 457.457 174.452 452.393"/>
      </g>
      <path style="stroke: rgb(31, 26, 23); fill: rgb(143, 84, 68); stroke-width: 4px; stroke-opacity: 0;" d="M 123.161 299.932 C 125.048 304.335 88.414 412.393 87.222 409.612 C 89.297 403.386 139.261 416.039 137.186 422.265 C 136.858 421.937 151.786 374.503 159.966 349.579 C 162.922 340.575 164.996 334.508 165.152 334.664 L 168.138 306.438 C 165.316 293.688 133.697 286.857 123.161 299.503"/>
      <path style="stroke: rgb(31, 26, 23); fill-opacity: 0; stroke-width: 5px; fill: rgb(143, 84, 68);" d="M 169.945 297.712 C 171.493 299.661 136.189 289.585 125.351 298.452 C 124.457 299.346 88.138 411.125 89.312 409.951 C 91.659 403.496 138.964 415.932 137.177 420.847 C 137.177 421.329 165.584 337.935 165.584 337.38"/>
    </g>
    <g style="">
      <title>PERNA_2</title>
      <g style="">
        <title>PE2</title>
        <path style="fill: rgb(143, 84, 68); stroke: rgb(0, 0, 0); stroke-width: 4px;" d="M 270.384 455.745 C 285.286 445.504 299.025 443.713 315.372 443.399 C 326.95 443.177 335.374 447.072 335.476 451.277 C 335.653 458.587 322.796 463.923 316.489 465.07 C 301.628 467.772 282.576 466.589 271.616 458.958"/>
        <line style="fill: rgb(31, 26, 23); stroke: rgb(31, 26, 23); stroke-width: 5px;" x1="269.517" y1="442.857" x2="270.849" y2="458.503"/>
      </g>
      <path style="stroke: rgb(31, 26, 23); stroke-width: 0.0938px; fill: rgb(143, 84, 68);" d="M 230.416 331.246 C 230.714 327.669 278.781 334.959 278.28 340.974 L 297.348 442.54 C 295.787 438.637 248.744 446.725 249.094 447.599 L 229.248 354.983 L 230.416 331.246 Z"/>
      <path style="stroke: rgb(31, 26, 23); fill-opacity: 0; stroke-width: 5px; fill: rgb(143, 84, 68);" d="M 230.415 363.156 L 248.316 451.88 C 247.027 449.302 294.991 441.719 297.737 447.21 C 296.274 449.404 281.271 339.796 281.782 339.029 C 280.278 333.515 231.467 324.854 232.361 328.133"/>
    </g>
    <g style="" transform="matrix(0.485717, 0, 0, 0.485717, 130.341461, -0.000108)" id="g-1">
      <title>ROPE</title>
      <path style="fill:#E9B264;" d="M217.292,152.579c0,0.001,15,0.001,15,0.001c0-4.144,3.358-7.501,7.5-7.501h30.414&#10;&#9;&#9;c4.136,0,7.5-3.364,7.5-7.5s-3.364-7.5-7.5-7.5h-70.414c-4.136,0-7.5,3.364-7.5,7.5s3.364,7.5,7.5,7.5h10&#10;&#9;&#9;C213.935,145.079,217.292,148.437,217.292,152.579z" id="path-106"/>
      <path style="fill:#F59B45;" d="M209.792,160.079h-10c-4.136,0-7.5,3.364-7.5,7.5s3.364,7.5,7.5,7.5h70.414&#10;&#9;&#9;c4.136,0,7.5-3.364,7.5-7.5s-3.364-7.5-7.5-7.5h-30.414c-4.142,0-7.499-3.357-7.5-7.499h-15&#10;&#9;&#9;C217.292,156.721,213.934,160.079,209.792,160.079z" id="path-107"/>
      <path style="fill:#E9B264;" d="M199.792,205.079h70.414c4.136,0,7.5-3.364,7.5-7.5s-3.364-7.5-7.5-7.5h-70.414&#10;&#9;&#9;c-4.136,0-7.5,3.364-7.5,7.5S195.657,205.079,199.792,205.079z" id="path-108"/>
      <path style="fill:#F59B45;" d="M 265.951 220.079 L 239.632 220.079 C 242.651 225.008 245.659 230.014 248.635 235.072 C 252.251 232.981 256.837 234.208 258.909 237.794 C 278.122 271.034 310.353 331.714 310.353 364.648 C 310.354 406.197 274.408 440 232.858 440 C 191.308 440 159.646 406.197 159.646 364.646 C 159.646 327.327 200.819 254.461 221.595 220.078 L 204.047 220.078 C 165.724 284.304 144.646 331.807 144.646 364.646 C 144.646 414.468 183.037 455 232.858 455 C 282.679 455 325.354 414.468 325.354 364.646 C 325.354 335.557 304.275 284.306 265.951 220.079 Z" id="path-109"/>
      <rect x="227.5" y="7.5" style="fill:#F59B45;" width="15" height="107.579" id="rect-1"/>
      <path style="fill:#34150C;" d="M 281.563 216.99 C 288.223 213.078 292.706 205.844 292.706 197.578 C 292.706 191.82 290.529 186.562 286.959 182.578 C 290.53 178.594 292.706 173.336 292.706 167.578 C 292.706 161.82 290.529 156.562 286.959 152.578 C 290.53 148.594 292.706 143.336 292.706 137.578 C 292.706 125.171 282.613 115.078 270.206 115.078 L 257.5 115.078 L 257.5 7.5 C 257.5 3.358 254.142 0 250 0 C 245.858 0 242.5 3.358 242.5 7.5 L 242.5 115.079 L 227.5 115.079 L 227.5 7.5 C 227.5 3.358 224.142 0 220 0 C 215.858 0 212.5 3.358 212.5 7.5 L 212.5 115.079 L 199.792 115.079 C 187.385 115.079 177.292 125.172 177.292 137.579 C 177.292 143.337 179.469 148.595 183.039 152.579 C 179.468 156.563 177.292 161.821 177.292 167.579 C 177.292 173.337 179.469 178.595 183.039 182.579 C 179.468 186.563 177.292 191.821 177.292 197.579 C 177.292 205.845 181.775 213.079 188.435 216.991 C 160.523 264.329 128.575 321.253 128.575 365.182 C 128.575 423.274 174.766 470 232.858 470 C 290.95 470 340.354 422.739 340.354 364.646 C 340.354 325.537 309.476 264.33 281.563 216.99 Z M 232.858 455 C 183.037 455 144.646 414.468 144.646 364.646 C 144.646 330.737 165.724 284.304 204.047 220.078 L 221.595 220.078 C 200.819 254.461 159.646 327.327 159.646 364.646 C 159.646 406.197 191.308 440 232.858 440 C 274.408 440 310.354 406.197 310.354 364.646 C 310.354 331.713 278.123 271.032 258.91 237.792 C 256.837 234.206 252.251 232.979 248.663 235.052 C 245.072 237.151 243.856 241.722 245.923 245.299 C 277.337 299.648 295.354 343.148 295.354 364.646 C 295.354 397.925 266.137 425 232.858 425 C 199.579 425 174.646 397.925 174.646 364.646 C 174.646 339.66 199.313 284.474 239.175 220.078 L 239.632 220.078 L 265.951 220.078 C 304.275 284.305 325.354 335.557 325.354 364.646 C 325.354 414.468 282.679 455 232.858 455 Z M 192.292 137.579 C 192.292 133.443 195.656 130.079 199.792 130.079 L 270.206 130.079 C 274.342 130.079 277.706 133.443 277.706 137.579 C 277.706 141.715 274.342 145.079 270.206 145.079 L 239.792 145.079 C 235.65 145.079 232.292 148.437 232.292 152.579 C 232.293 156.722 235.65 160.079 239.792 160.079 L 270.206 160.079 C 274.342 160.079 277.706 163.443 277.706 167.579 C 277.706 171.715 274.342 175.079 270.206 175.079 L 199.792 175.079 C 195.656 175.079 192.292 171.715 192.292 167.579 C 192.292 163.443 195.656 160.079 199.792 160.079 L 209.792 160.079 C 213.934 160.079 217.291 156.722 217.292 152.58 C 217.292 148.436 213.934 145.079 209.792 145.079 L 199.792 145.079 C 195.657 145.079 192.292 141.714 192.292 137.579 Z M 199.792 190.079 L 270.206 190.079 C 274.342 190.079 277.706 193.443 277.706 197.579 C 277.706 201.715 274.342 205.079 270.206 205.079 L 199.792 205.079 C 195.656 205.079 192.292 201.715 192.292 197.579 C 192.292 193.443 195.657 190.079 199.792 190.079 Z" id="path-110"/>
    </g>
    <path style="stroke: rgb(0, 0, 0); stroke-width: 4px; fill: rgb(246, 197, 180);" d="M 261.114 104.813 C 236.985 98.781 221.543 103.453 204.658 120.338 C 199.909 125.087 195.248 141 195.248 147.156 C 195.248 169.486 206.952 194.026 228.651 201.26 C 236.219 203.782 250.589 206.236 258.29 205.494 C 266.564 204.696 278.291 199.07 286.048 190.909 C 313.386 162.15 292.123 120.335 260.854 104.7">
      <title>CABECA</title>
    </path>
    <g style="">
      <title>OLHOS</title>
      <path style="fill: rgb(216, 216, 216); stroke: rgb(0, 0, 0); fill-opacity: 0; stroke-width: 3px;" d="M 229.119 129.392 C 231.131 135.431 232.717 143.398 237.373 148.053"/>
      <path style="fill: rgb(216, 216, 216); stroke: rgb(0, 0, 0); fill-opacity: 0; stroke-width: 3px;" d="M 239.526 131.904 C 232.235 133.727 224.68 142.085 219.429 147.336"/>
      <path style="fill: rgb(216, 216, 216); stroke: rgb(0, 0, 0); fill-opacity: 0; stroke-width: 3px;" d="M 257.828 134.775 C 257.828 142.74 261.047 146.966 266.441 152.36"/>
      <path style="fill: rgb(216, 216, 216); stroke: rgb(0, 0, 0); fill-opacity: 0; stroke-width: 3px;" d="M 267.877 135.852 C 260.617 141.037 255.137 148.089 247.421 152.719"/>
    </g>
  </g>
</svg>